  0
SECTION
  2
HEADER
  9
$ACADVER
  1
AC1009
  9
$FILLMODE
 70
1
  9
$EXTMIN
 10
-4.0894
 20
-4.2164
 30
0.0000
  9
$EXTMAX
 10
127.6221
 20
108.4580
 30
0.0000
  0
ENDSEC
  0
SECTION
  2
TABLES
  0
TABLE
  2
LTYPE
 70
1
  0
LTYPE
  2
CONTINUOUS
 70
64
  3
Solid line
 72
65
 73
0
 40
0
  0
ENDTAB
  0
TABLE
  2
LAYER
 70
255
  0
LAYER
  2
20
 70
64
 62
7
  6
CONTINUOUS
  0
ENDTAB
  0
ENDSEC
  0
SECTION
  2
BLOCKS
  0
BLOCK
  8
0
  2
RECT
 70
64
 10
0.0000
 20
0.0000
 30
0.0000
  3
RECT
  0
SOLID
  8
0
 10
-0.5000
 20
-0.5000
 30
0.0000
 11
0.5000
 21
-0.5000
 31
0.0000
 12
-0.5000
 22
0.5000
 32
0.0000
 13
0.5000
 23
0.5000
 33
0.0000
  0
ENDBLK
  8
0
  0
BLOCK
  8
0
  2
PIE
 70
64
 10
0.0000
 20
0.0000
 30
0.0000
  3
PIE
  0
POLYLINE
  8
0
 66
1
 10
0.0000
 20
0.0000
 30
0.0000
 40
0.5000
 41
0.5000
 70
0
  0
VERTEX
  8
0
 10
0.0000
 20
-0.2500
 30
0.0000
 42
1.0000
  0
VERTEX
  8
0
 10
0.0000
 20
0.2500
 30
0.0000
 42
1.0000
  0
VERTEX
  8
0
 10
0.0000
 20
-0.2500
 30
0.0000
  0
SEQEND
  8
0
  0
ENDBLK
  8
0
  0
BLOCK
  8
0
  2
OCTAGONP
 70
64
 10
0.0000
 20
0.0000
 30
0.0000
  3
OCTAGONP
  0
POLYLINE
  8
0
 66
1
 10
0.0000
 20
0.0000
 30
0.0000
 40
0.5000
 41
0.5000
 70
0
  0
VERTEX
  8
0
 10
-0.2500
 20
-0.1036
 30
0.0000
  0
VERTEX
  8
0
 10
-0.2500
 20
0.1036
 30
0.0000
  0
VERTEX
  8
0
 10
-0.1036
 20
0.2500
 30
0.0000
  0
VERTEX
  8
0
 10
0.1036
 20
0.2500
 30
0.0000
  0
VERTEX
  8
0
 10
0.2500
 20
0.1036
 30
0.0000
  0
VERTEX
  8
0
 10
0.2500
 20
-0.1036
 30
0.0000
  0
VERTEX
  8
0
 10
0.1036
 20
-0.2500
 30
0.0000
  0
VERTEX
  8
0
 10
-0.1036
 20
-0.2500
 30
0.0000
  0
VERTEX
  8
0
 10
-0.2500
 20
-0.1036
 30
0.0000
  0
VERTEX
  8
0
 10
-0.2500
 20
0.1036
 30
0.0000
  0
SEQEND
  8
0
  0
ENDBLK
  8
0
  0
BLOCK
  8
0
  2
SQUAREP
 70
64
 10
0.0000
 20
0.0000
 30
0.0000
  3
SQUAREP
  0
SOLID
  8
0
 10
-0.5000
 20
-0.5000
 30
0.0000
 11
0.5000
 21
-0.5000
 31
0.0000
 12
-0.5000
 22
0.5000
 32
0.0000
 13
0.5000
 23
0.5000
 33
0.0000
  0
ENDBLK
  8
0
  0
BLOCK
  8
0
  2
ROUNDP
 70
64
 10
0.0000
 20
0.0000
 30
0.0000
  3
ROUNDP
  0
POLYLINE
  8
0
 66
1
 10
0.0000
 20
0.0000
 30
0.0000
 40
0.5000
 41
0.5000
 70
0
  0
VERTEX
  8
0
 10
0.0000
 20
-0.2500
 30
0.0000
 42
1.0000
  0
VERTEX
  8
0
 10
0.0000
 20
0.2500
 30
0.0000
 42
1.0000
  0
VERTEX
  8
0
 10
0.0000
 20
-0.2500
 30
0.0000
  0
SEQEND
  8
0
  0
ENDBLK
  8
0
  0
BLOCK
  8
0
  2
ANNULUSP
 70
64
 10
0.0000
 20
0.0000
 30
0.0000
  3
ANNULUSP
  0
POLYLINE
  8
0
 66
1
 10
0.0000
 20
0.0000
 30
0.0000
 40
0.5000
 41
0.5000
 70
0
  0
VERTEX
  8
0
 10
0.0000
 20
-0.2500
 30
0.0000
 42
1.0000
  0
VERTEX
  8
0
 10
0.0000
 20
0.2500
 30
0.0000
 42
1.0000
  0
VERTEX
  8
0
 10
0.0000
 20
-0.2500
 30
0.0000
  0
SEQEND
  8
0
  0
ENDBLK
  8
0
  0
BLOCK
  8
0
  2
THERMALP
 70
64
 10
0.0000
 20
0.0000
 30
0.0000
  3
THERMALP
  0
POLYLINE
  8
0
 66
1
 10
0.0000
 20
0.0000
 30
0.0000
 40
0.1000
 41
0.1000
 70
0
  0
VERTEX
  8
0
 10
-0.2379
 20
0.4500
 30
0.0000
  0
VERTEX
  8
0
 10
0.2379
 20
0.4500
 30
0.0000
  0
SEQEND
  8
0
  0
POLYLINE
  8
0
 66
1
 10
0.0000
 20
0.0000
 30
0.0000
 40
0.0500
 41
0.0500
 70
0
  0
VERTEX
  8
0
 10
0.2379
 20
0.4250
 30
0.0000
 42
1.0000
  0
VERTEX
  8
0
 10
0.2379
 20
0.4750
 30
0.0000
  0
SEQEND
  8
0
  0
POLYLINE
  8
0
 66
1
 10
0.0000
 20
0.0000
 30
0.0000
 40
0.0500
 41
0.0500
 70
0
  0
VERTEX
  8
0
 10
-0.2379
 20
0.4750
 30
0.0000
 42
1.0000
  0
VERTEX
  8
0
 10
-0.2379
 20
0.4250
 30
0.0000
  0
SEQEND
  8
0
  0
POLYLINE
  8
0
 66
1
 10
0.0000
 20
0.0000
 30
0.0000
 40
0.1000
 41
0.1000
 70
0
  0
VERTEX
  8
0
 10
0.4500
 20
0.2379
 30
0.0000
  0
VERTEX
  8
0
 10
0.4500
 20
-0.2379
 30
0.0000
  0
SEQEND
  8
0
  0
POLYLINE
  8
0
 66
1
 10
0.0000
 20
0.0000
 30
0.0000
 40
0.0500
 41
0.0500
 70
0
  0
VERTEX
  8
0
 10
0.4250
 20
-0.2379
 30
0.0000
 42
1.0000
  0
VERTEX
  8
0
 10
0.4750
 20
-0.2379
 30
0.0000
  0
SEQEND
  8
0
  0
POLYLINE
  8
0
 66
1
 10
0.0000
 20
0.0000
 30
0.0000
 40
0.0500
 41
0.0500
 70
0
  0
VERTEX
  8
0
 10
0.4750
 20
0.2379
 30
0.0000
 42
1.0000
  0
VERTEX
  8
0
 10
0.4250
 20
0.2379
 30
0.0000
  0
SEQEND
  8
0
  0
POLYLINE
  8
0
 66
1
 10
0.0000
 20
0.0000
 30
0.0000
 40
0.1000
 41
0.1000
 70
0
  0
VERTEX
  8
0
 10
0.2379
 20
-0.4500
 30
0.0000
  0
VERTEX
  8
0
 10
-0.2379
 20
-0.4500
 30
0.0000
  0
SEQEND
  8
0
  0
POLYLINE
  8
0
 66
1
 10
0.0000
 20
0.0000
 30
0.0000
 40
0.0500
 41
0.0500
 70
0
  0
VERTEX
  8
0
 10
-0.2379
 20
-0.4250
 30
0.0000
 42
1.0000
  0
VERTEX
  8
0
 10
-0.2379
 20
-0.4750
 30
0.0000
  0
SEQEND
  8
0
  0
POLYLINE
  8
0
 66
1
 10
0.0000
 20
0.0000
 30
0.0000
 40
0.0500
 41
0.0500
 70
0
  0
VERTEX
  8
0
 10
0.2379
 20
-0.4750
 30
0.0000
 42
1.0000
  0
VERTEX
  8
0
 10
0.2379
 20
-0.4250
 30
0.0000
  0
SEQEND
  8
0
  0
POLYLINE
  8
0
 66
1
 10
0.0000
 20
0.0000
 30
0.0000
 40
0.1000
 41
0.1000
 70
0
  0
VERTEX
  8
0
 10
-0.4500
 20
-0.2379
 30
0.0000
  0
VERTEX
  8
0
 10
-0.4500
 20
0.2379
 30
0.0000
  0
SEQEND
  8
0
  0
POLYLINE
  8
0
 66
1
 10
0.0000
 20
0.0000
 30
0.0000
 40
0.0500
 41
0.0500
 70
0
  0
VERTEX
  8
0
 10
-0.4250
 20
0.2379
 30
0.0000
 42
1.0000
  0
VERTEX
  8
0
 10
-0.4750
 20
0.2379
 30
0.0000
  0
SEQEND
  8
0
  0
POLYLINE
  8
0
 66
1
 10
0.0000
 20
0.0000
 30
0.0000
 40
0.0500
 41
0.0500
 70
0
  0
VERTEX
  8
0
 10
-0.4750
 20
-0.2379
 30
0.0000
 42
1.0000
  0
VERTEX
  8
0
 10
-0.4250
 20
-0.2379
 30
0.0000
  0
SEQEND
  8
0
  0
ENDBLK
  8
0
  0
BLOCK
  8
0
  2
OCTAGONV
 70
64
 10
0.0000
 20
0.0000
 30
0.0000
  3
OCTAGONV
  0
POLYLINE
  8
0
 66
1
 10
0.0000
 20
0.0000
 30
0.0000
 40
0.5000
 41
0.5000
 70
0
  0
VERTEX
  8
0
 10
-0.2500
 20
-0.1036
 30
0.0000
  0
VERTEX
  8
0
 10
-0.2500
 20
0.1036
 30
0.0000
  0
VERTEX
  8
0
 10
-0.1036
 20
0.2500
 30
0.0000
  0
VERTEX
  8
0
 10
0.1036
 20
0.2500
 30
0.0000
  0
VERTEX
  8
0
 10
0.2500
 20
0.1036
 30
0.0000
  0
VERTEX
  8
0
 10
0.2500
 20
-0.1036
 30
0.0000
  0
VERTEX
  8
0
 10
0.1036
 20
-0.2500
 30
0.0000
  0
VERTEX
  8
0
 10
-0.1036
 20
-0.2500
 30
0.0000
  0
VERTEX
  8
0
 10
-0.2500
 20
-0.1036
 30
0.0000
  0
VERTEX
  8
0
 10
-0.2500
 20
0.1036
 30
0.0000
  0
SEQEND
  8
0
  0
ENDBLK
  8
0
  0
BLOCK
  8
0
  2
SQUAREV
 70
64
 10
0.0000
 20
0.0000
 30
0.0000
  3
SQUAREV
  0
SOLID
  8
0
 10
-0.5000
 20
-0.5000
 30
0.0000
 11
0.5000
 21
-0.5000
 31
0.0000
 12
-0.5000
 22
0.5000
 32
0.0000
 13
0.5000
 23
0.5000
 33
0.0000
  0
ENDBLK
  8
0
  0
BLOCK
  8
0
  2
ROUNDV
 70
64
 10
0.0000
 20
0.0000
 30
0.0000
  3
ROUNDV
  0
POLYLINE
  8
0
 66
1
 10
0.0000
 20
0.0000
 30
0.0000
 40
0.5000
 41
0.5000
 70
0
  0
VERTEX
  8
0
 10
0.0000
 20
-0.2500
 30
0.0000
 42
1.0000
  0
VERTEX
  8
0
 10
0.0000
 20
0.2500
 30
0.0000
 42
1.0000
  0
VERTEX
  8
0
 10
0.0000
 20
-0.2500
 30
0.0000
  0
SEQEND
  8
0
  0
ENDBLK
  8
0
  0
BLOCK
  8
0
  2
ANNULUSV
 70
64
 10
0.0000
 20
0.0000
 30
0.0000
  3
ANNULUSV
  0
POLYLINE
  8
0
 66
1
 10
0.0000
 20
0.0000
 30
0.0000
 40
0.5000
 41
0.5000
 70
0
  0
VERTEX
  8
0
 10
0.0000
 20
-0.2500
 30
0.0000
 42
1.0000
  0
VERTEX
  8
0
 10
0.0000
 20
0.2500
 30
0.0000
 42
1.0000
  0
VERTEX
  8
0
 10
0.0000
 20
-0.2500
 30
0.0000
  0
SEQEND
  8
0
  0
ENDBLK
  8
0
  0
BLOCK
  8
0
  2
THERMALV
 70
64
 10
0.0000
 20
0.0000
 30
0.0000
  3
THERMALV
  0
POLYLINE
  8
0
 66
1
 10
0.0000
 20
0.0000
 30
0.0000
 40
0.1000
 41
0.1000
 70
0
  0
VERTEX
  8
0
 10
-0.2379
 20
0.4500
 30
0.0000
  0
VERTEX
  8
0
 10
0.2379
 20
0.4500
 30
0.0000
  0
SEQEND
  8
0
  0
POLYLINE
  8
0
 66
1
 10
0.0000
 20
0.0000
 30
0.0000
 40
0.0500
 41
0.0500
 70
0
  0
VERTEX
  8
0
 10
0.2379
 20
0.4250
 30
0.0000
 42
1.0000
  0
VERTEX
  8
0
 10
0.2379
 20
0.4750
 30
0.0000
  0
SEQEND
  8
0
  0
POLYLINE
  8
0
 66
1
 10
0.0000
 20
0.0000
 30
0.0000
 40
0.0500
 41
0.0500
 70
0
  0
VERTEX
  8
0
 10
-0.2379
 20
0.4750
 30
0.0000
 42
1.0000
  0
VERTEX
  8
0
 10
-0.2379
 20
0.4250
 30
0.0000
  0
SEQEND
  8
0
  0
POLYLINE
  8
0
 66
1
 10
0.0000
 20
0.0000
 30
0.0000
 40
0.1000
 41
0.1000
 70
0
  0
VERTEX
  8
0
 10
0.4500
 20
0.2379
 30
0.0000
  0
VERTEX
  8
0
 10
0.4500
 20
-0.2379
 30
0.0000
  0
SEQEND
  8
0
  0
POLYLINE
  8
0
 66
1
 10
0.0000
 20
0.0000
 30
0.0000
 40
0.0500
 41
0.0500
 70
0
  0
VERTEX
  8
0
 10
0.4250
 20
-0.2379
 30
0.0000
 42
1.0000
  0
VERTEX
  8
0
 10
0.4750
 20
-0.2379
 30
0.0000
  0
SEQEND
  8
0
  0
POLYLINE
  8
0
 66
1
 10
0.0000
 20
0.0000
 30
0.0000
 40
0.0500
 41
0.0500
 70
0
  0
VERTEX
  8
0
 10
0.4750
 20
0.2379
 30
0.0000
 42
1.0000
  0
VERTEX
  8
0
 10
0.4250
 20
0.2379
 30
0.0000
  0
SEQEND
  8
0
  0
POLYLINE
  8
0
 66
1
 10
0.0000
 20
0.0000
 30
0.0000
 40
0.1000
 41
0.1000
 70
0
  0
VERTEX
  8
0
 10
0.2379
 20
-0.4500
 30
0.0000
  0
VERTEX
  8
0
 10
-0.2379
 20
-0.4500
 30
0.0000
  0
SEQEND
  8
0
  0
POLYLINE
  8
0
 66
1
 10
0.0000
 20
0.0000
 30
0.0000
 40
0.0500
 41
0.0500
 70
0
  0
VERTEX
  8
0
 10
-0.2379
 20
-0.4250
 30
0.0000
 42
1.0000
  0
VERTEX
  8
0
 10
-0.2379
 20
-0.4750
 30
0.0000
  0
SEQEND
  8
0
  0
POLYLINE
  8
0
 66
1
 10
0.0000
 20
0.0000
 30
0.0000
 40
0.0500
 41
0.0500
 70
0
  0
VERTEX
  8
0
 10
0.2379
 20
-0.4750
 30
0.0000
 42
1.0000
  0
VERTEX
  8
0
 10
0.2379
 20
-0.4250
 30
0.0000
  0
SEQEND
  8
0
  0
POLYLINE
  8
0
 66
1
 10
0.0000
 20
0.0000
 30
0.0000
 40
0.1000
 41
0.1000
 70
0
  0
VERTEX
  8
0
 10
-0.4500
 20
-0.2379
 30
0.0000
  0
VERTEX
  8
0
 10
-0.4500
 20
0.2379
 30
0.0000
  0
SEQEND
  8
0
  0
POLYLINE
  8
0
 66
1
 10
0.0000
 20
0.0000
 30
0.0000
 40
0.0500
 41
0.0500
 70
0
  0
VERTEX
  8
0
 10
-0.4250
 20
0.2379
 30
0.0000
 42
1.0000
  0
VERTEX
  8
0
 10
-0.4750
 20
0.2379
 30
0.0000
  0
SEQEND
  8
0
  0
POLYLINE
  8
0
 66
1
 10
0.0000
 20
0.0000
 30
0.0000
 40
0.0500
 41
0.0500
 70
0
  0
VERTEX
  8
0
 10
-0.4750
 20
-0.2379
 30
0.0000
 42
1.0000
  0
VERTEX
  8
0
 10
-0.4250
 20
-0.2379
 30
0.0000
  0
SEQEND
  8
0
  0
ENDBLK
  8
0
  0
ENDSEC
  0
SECTION
  2
ENTITIES
  0
POLYLINE
  8
20
 66
1
 10
0.0000
 20
0.0000
 30
0.0000
 40
0.0250
 41
0.0250
 70
0
  0
VERTEX
  8
20
 10
7.6015
 20
86.1801
 30
0.0000
  0
VERTEX
  8
20
 10
7.6012
 20
101.2828
 30
0.0000
  0
SEQEND
  8
0
  0
POLYLINE
  8
20
 66
1
 10
0.0000
 20
0.0000
 30
0.0000
 40
0.0125
 41
0.0125
 70
0
  0
VERTEX
  8
20
 10
7.6074
 20
101.2828
 30
0.0000
 42
1.0000
  0
VERTEX
  8
20
 10
7.5949
 20
101.2828
 30
0.0000
  0
SEQEND
  8
0
  0
POLYLINE
  8
20
 66
1
 10
0.0000
 20
0.0000
 30
0.0000
 40
0.0125
 41
0.0125
 70
0
  0
VERTEX
  8
20
 10
7.5953
 20
86.1801
 30
0.0000
 42
1.0000
  0
VERTEX
  8
20
 10
7.6078
 20
86.1801
 30
0.0000
  0
SEQEND
  8
0
  0
POLYLINE
  8
20
 66
1
 10
0.0000
 20
0.0000
 30
0.0000
 40
0.0250
 41
0.0250
 70
0
  0
VERTEX
  8
20
 10
10.1412
 20
103.8386
 30
0.0000
 42
0.4142
  0
VERTEX
  8
20
 10
7.6012
 20
101.2828
 30
0.0000
  0
SEQEND
  8
0
  0
POLYLINE
  8
20
 66
1
 10
0.0000
 20
0.0000
 30
0.0000
 40
0.0125
 41
0.0125
 70
0
  0
VERTEX
  8
20
 10
10.1412
 20
103.8324
 30
0.0000
 42
1.0000
  0
VERTEX
  8
20
 10
10.1412
 20
103.8449
 30
0.0000
  0
SEQEND
  8
0
  0
POLYLINE
  8
20
 66
1
 10
0.0000
 20
0.0000
 30
0.0000
 40
0.0125
 41
0.0125
 70
0
  0
VERTEX
  8
20
 10
7.5949
 20
101.2828
 30
0.0000
 42
1.0000
  0
VERTEX
  8
20
 10
7.6074
 20
101.2828
 30
0.0000
  0
SEQEND
  8
0
  0
POLYLINE
  8
20
 66
1
 10
0.0000
 20
0.0000
 30
0.0000
 40
0.0250
 41
0.0250
 70
0
  0
VERTEX
  8
20
 10
10.1412
 20
103.8386
 30
0.0000
  0
VERTEX
  8
20
 10
70.0614
 20
103.8386
 30
0.0000
  0
SEQEND
  8
0
  0
POLYLINE
  8
20
 66
1
 10
0.0000
 20
0.0000
 30
0.0000
 40
0.0125
 41
0.0125
 70
0
  0
VERTEX
  8
20
 10
70.0614
 20
103.8324
 30
0.0000
 42
1.0000
  0
VERTEX
  8
20
 10
70.0614
 20
103.8449
 30
0.0000
  0
SEQEND
  8
0
  0
POLYLINE
  8
20
 66
1
 10
0.0000
 20
0.0000
 30
0.0000
 40
0.0125
 41
0.0125
 70
0
  0
VERTEX
  8
20
 10
10.1412
 20
103.8449
 30
0.0000
 42
1.0000
  0
VERTEX
  8
20
 10
10.1412
 20
103.8324
 30
0.0000
  0
SEQEND
  8
0
  0
POLYLINE
  8
20
 66
1
 10
0.0000
 20
0.0000
 30
0.0000
 40
0.0250
 41
0.0250
 70
0
  0
VERTEX
  8
20
 10
72.6014
 20
101.2986
 30
0.0000
 42
0.4142
  0
VERTEX
  8
20
 10
70.0614
 20
103.8386
 30
0.0000
  0
SEQEND
  8
0
  0
POLYLINE
  8
20
 66
1
 10
0.0000
 20
0.0000
 30
0.0000
 40
0.0125
 41
0.0125
 70
0
  0
VERTEX
  8
20
 10
72.5951
 20
101.2986
 30
0.0000
 42
1.0000
  0
VERTEX
  8
20
 10
72.6076
 20
101.2986
 30
0.0000
  0
SEQEND
  8
0
  0
POLYLINE
  8
20
 66
1
 10
0.0000
 20
0.0000
 30
0.0000
 40
0.0125
 41
0.0125
 70
0
  0
VERTEX
  8
20
 10
70.0614
 20
103.8449
 30
0.0000
 42
1.0000
  0
VERTEX
  8
20
 10
70.0614
 20
103.8324
 30
0.0000
  0
SEQEND
  8
0
  0
POLYLINE
  8
20
 66
1
 10
0.0000
 20
0.0000
 30
0.0000
 40
0.0250
 41
0.0250
 70
0
  0
VERTEX
  8
20
 10
72.6014
 20
101.2986
 30
0.0000
  0
VERTEX
  8
20
 10
72.6014
 20
86.1801
 30
0.0000
  0
SEQEND
  8
0
  0
POLYLINE
  8
20
 66
1
 10
0.0000
 20
0.0000
 30
0.0000
 40
0.0125
 41
0.0125
 70
0
  0
VERTEX
  8
20
 10
72.5951
 20
86.1801
 30
0.0000
 42
1.0000
  0
VERTEX
  8
20
 10
72.6076
 20
86.1801
 30
0.0000
  0
SEQEND
  8
0
  0
POLYLINE
  8
20
 66
1
 10
0.0000
 20
0.0000
 30
0.0000
 40
0.0125
 41
0.0125
 70
0
  0
VERTEX
  8
20
 10
72.6076
 20
101.2986
 30
0.0000
 42
1.0000
  0
VERTEX
  8
20
 10
72.5951
 20
101.2986
 30
0.0000
  0
SEQEND
  8
0
  0
POLYLINE
  8
20
 66
1
 10
0.0000
 20
0.0000
 30
0.0000
 40
0.0250
 41
0.0250
 70
0
  0
VERTEX
  8
20
 10
72.6014
 20
86.1801
 30
0.0000
  0
VERTEX
  8
20
 10
76.2611
 20
86.1801
 30
0.0000
  0
SEQEND
  8
0
  0
POLYLINE
  8
20
 66
1
 10
0.0000
 20
0.0000
 30
0.0000
 40
0.0125
 41
0.0125
 70
0
  0
VERTEX
  8
20
 10
76.2611
 20
86.1739
 30
0.0000
 42
1.0000
  0
VERTEX
  8
20
 10
76.2611
 20
86.1864
 30
0.0000
  0
SEQEND
  8
0
  0
POLYLINE
  8
20
 66
1
 10
0.0000
 20
0.0000
 30
0.0000
 40
0.0125
 41
0.0125
 70
0
  0
VERTEX
  8
20
 10
72.6014
 20
86.1864
 30
0.0000
 42
1.0000
  0
VERTEX
  8
20
 10
72.6014
 20
86.1739
 30
0.0000
  0
SEQEND
  8
0
  0
POLYLINE
  8
20
 66
1
 10
0.0000
 20
0.0000
 30
0.0000
 40
0.0250
 41
0.0250
 70
0
  0
VERTEX
  8
20
 10
78.8011
 20
83.6401
 30
0.0000
 42
0.4142
  0
VERTEX
  8
20
 10
76.2611
 20
86.1801
 30
0.0000
  0
SEQEND
  8
0
  0
POLYLINE
  8
20
 66
1
 10
0.0000
 20
0.0000
 30
0.0000
 40
0.0125
 41
0.0125
 70
0
  0
VERTEX
  8
20
 10
78.7949
 20
83.6401
 30
0.0000
 42
1.0000
  0
VERTEX
  8
20
 10
78.8073
 20
83.6401
 30
0.0000
  0
SEQEND
  8
0
  0
POLYLINE
  8
20
 66
1
 10
0.0000
 20
0.0000
 30
0.0000
 40
0.0125
 41
0.0125
 70
0
  0
VERTEX
  8
20
 10
76.2611
 20
86.1864
 30
0.0000
 42
1.0000
  0
VERTEX
  8
20
 10
76.2611
 20
86.1739
 30
0.0000
  0
SEQEND
  8
0
  0
POLYLINE
  8
20
 66
1
 10
0.0000
 20
0.0000
 30
0.0000
 40
0.0250
 41
0.0250
 70
0
  0
VERTEX
  8
20
 10
78.8011
 20
83.6401
 30
0.0000
  0
VERTEX
  8
20
 10
78.8011
 20
74.5362
 30
0.0000
  0
SEQEND
  8
0
  0
POLYLINE
  8
20
 66
1
 10
0.0000
 20
0.0000
 30
0.0000
 40
0.0125
 41
0.0125
 70
0
  0
VERTEX
  8
20
 10
78.7949
 20
74.5362
 30
0.0000
 42
1.0000
  0
VERTEX
  8
20
 10
78.8073
 20
74.5362
 30
0.0000
  0
SEQEND
  8
0
  0
POLYLINE
  8
20
 66
1
 10
0.0000
 20
0.0000
 30
0.0000
 40
0.0125
 41
0.0125
 70
0
  0
VERTEX
  8
20
 10
78.8073
 20
83.6401
 30
0.0000
 42
1.0000
  0
VERTEX
  8
20
 10
78.7949
 20
83.6401
 30
0.0000
  0
SEQEND
  8
0
  0
POLYLINE
  8
20
 66
1
 10
0.0000
 20
0.0000
 30
0.0000
 40
0.0250
 41
0.0250
 70
0
  0
VERTEX
  8
20
 10
76.2611
 20
71.9962
 30
0.0000
 42
0.4142
  0
VERTEX
  8
20
 10
78.8011
 20
74.5362
 30
0.0000
  0
SEQEND
  8
0
  0
POLYLINE
  8
20
 66
1
 10
0.0000
 20
0.0000
 30
0.0000
 40
0.0125
 41
0.0125
 70
0
  0
VERTEX
  8
20
 10
76.2611
 20
72.0025
 30
0.0000
 42
1.0000
  0
VERTEX
  8
20
 10
76.2611
 20
71.9900
 30
0.0000
  0
SEQEND
  8
0
  0
POLYLINE
  8
20
 66
1
 10
0.0000
 20
0.0000
 30
0.0000
 40
0.0125
 41
0.0125
 70
0
  0
VERTEX
  8
20
 10
78.8073
 20
74.5362
 30
0.0000
 42
1.0000
  0
VERTEX
  8
20
 10
78.7949
 20
74.5362
 30
0.0000
  0
SEQEND
  8
0
  0
POLYLINE
  8
20
 66
1
 10
0.0000
 20
0.0000
 30
0.0000
 40
0.0250
 41
0.0250
 70
0
  0
VERTEX
  8
20
 10
76.2611
 20
71.9962
 30
0.0000
  0
VERTEX
  8
20
 10
72.6011
 20
71.9962
 30
0.0000
  0
SEQEND
  8
0
  0
POLYLINE
  8
20
 66
1
 10
0.0000
 20
0.0000
 30
0.0000
 40
0.0125
 41
0.0125
 70
0
  0
VERTEX
  8
20
 10
72.6011
 20
72.0025
 30
0.0000
 42
1.0000
  0
VERTEX
  8
20
 10
72.6011
 20
71.9900
 30
0.0000
  0
SEQEND
  8
0
  0
POLYLINE
  8
20
 66
1
 10
0.0000
 20
0.0000
 30
0.0000
 40
0.0125
 41
0.0125
 70
0
  0
VERTEX
  8
20
 10
76.2611
 20
71.9900
 30
0.0000
 42
1.0000
  0
VERTEX
  8
20
 10
76.2611
 20
72.0025
 30
0.0000
  0
SEQEND
  8
0
  0
POLYLINE
  8
20
 66
1
 10
0.0000
 20
0.0000
 30
0.0000
 40
0.0250
 41
0.0250
 70
0
  0
VERTEX
  8
20
 10
72.6011
 20
71.9962
 30
0.0000
  0
VERTEX
  8
20
 10
72.6011
 20
33.9885
 30
0.0000
  0
SEQEND
  8
0
  0
POLYLINE
  8
20
 66
1
 10
0.0000
 20
0.0000
 30
0.0000
 40
0.0125
 41
0.0125
 70
0
  0
VERTEX
  8
20
 10
72.5949
 20
33.9885
 30
0.0000
 42
1.0000
  0
VERTEX
  8
20
 10
72.6074
 20
33.9885
 30
0.0000
  0
SEQEND
  8
0
  0
POLYLINE
  8
20
 66
1
 10
0.0000
 20
0.0000
 30
0.0000
 40
0.0125
 41
0.0125
 70
0
  0
VERTEX
  8
20
 10
72.6074
 20
71.9962
 30
0.0000
 42
1.0000
  0
VERTEX
  8
20
 10
72.5949
 20
71.9962
 30
0.0000
  0
SEQEND
  8
0
  0
POLYLINE
  8
20
 66
1
 10
0.0000
 20
0.0000
 30
0.0000
 40
0.0250
 41
0.0250
 70
0
  0
VERTEX
  8
20
 10
72.6011
 20
33.9885
 30
0.0000
  0
VERTEX
  8
20
 10
71.4012
 20
33.9885
 30
0.0000
  0
SEQEND
  8
0
  0
POLYLINE
  8
20
 66
1
 10
0.0000
 20
0.0000
 30
0.0000
 40
0.0125
 41
0.0125
 70
0
  0
VERTEX
  8
20
 10
71.4012
 20
33.9947
 30
0.0000
 42
1.0000
  0
VERTEX
  8
20
 10
71.4012
 20
33.9822
 30
0.0000
  0
SEQEND
  8
0
  0
POLYLINE
  8
20
 66
1
 10
0.0000
 20
0.0000
 30
0.0000
 40
0.0125
 41
0.0125
 70
0
  0
VERTEX
  8
20
 10
72.6011
 20
33.9822
 30
0.0000
 42
1.0000
  0
VERTEX
  8
20
 10
72.6011
 20
33.9947
 30
0.0000
  0
SEQEND
  8
0
  0
POLYLINE
  8
20
 66
1
 10
0.0000
 20
0.0000
 30
0.0000
 40
0.0250
 41
0.0250
 70
0
  0
VERTEX
  8
20
 10
71.4012
 20
33.9885
 30
0.0000
  0
VERTEX
  8
20
 10
71.4012
 20
32.8885
 30
0.0000
  0
SEQEND
  8
0
  0
POLYLINE
  8
20
 66
1
 10
0.0000
 20
0.0000
 30
0.0000
 40
0.0125
 41
0.0125
 70
0
  0
VERTEX
  8
20
 10
71.3949
 20
32.8885
 30
0.0000
 42
1.0000
  0
VERTEX
  8
20
 10
71.4074
 20
32.8885
 30
0.0000
  0
SEQEND
  8
0
  0
POLYLINE
  8
20
 66
1
 10
0.0000
 20
0.0000
 30
0.0000
 40
0.0125
 41
0.0125
 70
0
  0
VERTEX
  8
20
 10
71.4074
 20
33.9885
 30
0.0000
 42
1.0000
  0
VERTEX
  8
20
 10
71.3949
 20
33.9885
 30
0.0000
  0
SEQEND
  8
0
  0
POLYLINE
  8
20
 66
1
 10
0.0000
 20
0.0000
 30
0.0000
 40
0.0250
 41
0.0250
 70
0
  0
VERTEX
  8
20
 10
71.4012
 20
32.8885
 30
0.0000
  0
VERTEX
  8
20
 10
70.1012
 20
32.8885
 30
0.0000
  0
SEQEND
  8
0
  0
POLYLINE
  8
20
 66
1
 10
0.0000
 20
0.0000
 30
0.0000
 40
0.0125
 41
0.0125
 70
0
  0
VERTEX
  8
20
 10
70.1012
 20
32.8947
 30
0.0000
 42
1.0000
  0
VERTEX
  8
20
 10
70.1012
 20
32.8822
 30
0.0000
  0
SEQEND
  8
0
  0
POLYLINE
  8
20
 66
1
 10
0.0000
 20
0.0000
 30
0.0000
 40
0.0125
 41
0.0125
 70
0
  0
VERTEX
  8
20
 10
71.4012
 20
32.8822
 30
0.0000
 42
1.0000
  0
VERTEX
  8
20
 10
71.4012
 20
32.8947
 30
0.0000
  0
SEQEND
  8
0
  0
POLYLINE
  8
20
 66
1
 10
0.0000
 20
0.0000
 30
0.0000
 40
0.0250
 41
0.0250
 70
0
  0
VERTEX
  8
20
 10
70.1012
 20
32.8885
 30
0.0000
  0
VERTEX
  8
20
 10
70.1012
 20
29.2885
 30
0.0000
  0
SEQEND
  8
0
  0
POLYLINE
  8
20
 66
1
 10
0.0000
 20
0.0000
 30
0.0000
 40
0.0125
 41
0.0125
 70
0
  0
VERTEX
  8
20
 10
70.0949
 20
29.2885
 30
0.0000
 42
1.0000
  0
VERTEX
  8
20
 10
70.1074
 20
29.2885
 30
0.0000
  0
SEQEND
  8
0
  0
POLYLINE
  8
20
 66
1
 10
0.0000
 20
0.0000
 30
0.0000
 40
0.0125
 41
0.0125
 70
0
  0
VERTEX
  8
20
 10
70.1074
 20
32.8885
 30
0.0000
 42
1.0000
  0
VERTEX
  8
20
 10
70.0949
 20
32.8885
 30
0.0000
  0
SEQEND
  8
0
  0
POLYLINE
  8
20
 66
1
 10
0.0000
 20
0.0000
 30
0.0000
 40
0.0250
 41
0.0250
 70
0
  0
VERTEX
  8
20
 10
70.1012
 20
29.2885
 30
0.0000
  0
VERTEX
  8
20
 10
71.4012
 20
29.2885
 30
0.0000
  0
SEQEND
  8
0
  0
POLYLINE
  8
20
 66
1
 10
0.0000
 20
0.0000
 30
0.0000
 40
0.0125
 41
0.0125
 70
0
  0
VERTEX
  8
20
 10
71.4012
 20
29.2823
 30
0.0000
 42
1.0000
  0
VERTEX
  8
20
 10
71.4012
 20
29.2948
 30
0.0000
  0
SEQEND
  8
0
  0
POLYLINE
  8
20
 66
1
 10
0.0000
 20
0.0000
 30
0.0000
 40
0.0125
 41
0.0125
 70
0
  0
VERTEX
  8
20
 10
70.1012
 20
29.2948
 30
0.0000
 42
1.0000
  0
VERTEX
  8
20
 10
70.1012
 20
29.2823
 30
0.0000
  0
SEQEND
  8
0
  0
POLYLINE
  8
20
 66
1
 10
0.0000
 20
0.0000
 30
0.0000
 40
0.0250
 41
0.0250
 70
0
  0
VERTEX
  8
20
 10
71.4012
 20
29.2885
 30
0.0000
  0
VERTEX
  8
20
 10
71.4012
 20
28.1883
 30
0.0000
  0
SEQEND
  8
0
  0
POLYLINE
  8
20
 66
1
 10
0.0000
 20
0.0000
 30
0.0000
 40
0.0125
 41
0.0125
 70
0
  0
VERTEX
  8
20
 10
71.3949
 20
28.1883
 30
0.0000
 42
1.0000
  0
VERTEX
  8
20
 10
71.4074
 20
28.1883
 30
0.0000
  0
SEQEND
  8
0
  0
POLYLINE
  8
20
 66
1
 10
0.0000
 20
0.0000
 30
0.0000
 40
0.0125
 41
0.0125
 70
0
  0
VERTEX
  8
20
 10
71.4074
 20
29.2885
 30
0.0000
 42
1.0000
  0
VERTEX
  8
20
 10
71.3949
 20
29.2885
 30
0.0000
  0
SEQEND
  8
0
  0
POLYLINE
  8
20
 66
1
 10
0.0000
 20
0.0000
 30
0.0000
 40
0.0250
 41
0.0250
 70
0
  0
VERTEX
  8
20
 10
71.4012
 20
28.1883
 30
0.0000
  0
VERTEX
  8
20
 10
72.6009
 20
28.1885
 30
0.0000
  0
SEQEND
  8
0
  0
POLYLINE
  8
20
 66
1
 10
0.0000
 20
0.0000
 30
0.0000
 40
0.0125
 41
0.0125
 70
0
  0
VERTEX
  8
20
 10
72.6009
 20
28.1823
 30
0.0000
 42
1.0000
  0
VERTEX
  8
20
 10
72.6009
 20
28.1948
 30
0.0000
  0
SEQEND
  8
0
  0
POLYLINE
  8
20
 66
1
 10
0.0000
 20
0.0000
 30
0.0000
 40
0.0125
 41
0.0125
 70
0
  0
VERTEX
  8
20
 10
71.4011
 20
28.1945
 30
0.0000
 42
1.0000
  0
VERTEX
  8
20
 10
71.4012
 20
28.1820
 30
0.0000
  0
SEQEND
  8
0
  0
POLYLINE
  8
20
 66
1
 10
0.0000
 20
0.0000
 30
0.0000
 40
0.0250
 41
0.0250
 70
0
  0
VERTEX
  8
20
 10
72.6009
 20
28.1885
 30
0.0000
  0
VERTEX
  8
20
 10
72.6009
 20
6.4084
 30
0.0000
  0
SEQEND
  8
0
  0
POLYLINE
  8
20
 66
1
 10
0.0000
 20
0.0000
 30
0.0000
 40
0.0125
 41
0.0125
 70
0
  0
VERTEX
  8
20
 10
72.5946
 20
6.4084
 30
0.0000
 42
1.0000
  0
VERTEX
  8
20
 10
72.6071
 20
6.4084
 30
0.0000
  0
SEQEND
  8
0
  0
POLYLINE
  8
20
 66
1
 10
0.0000
 20
0.0000
 30
0.0000
 40
0.0125
 41
0.0125
 70
0
  0
VERTEX
  8
20
 10
72.6071
 20
28.1885
 30
0.0000
 42
1.0000
  0
VERTEX
  8
20
 10
72.5946
 20
28.1885
 30
0.0000
  0
SEQEND
  8
0
  0
POLYLINE
  8
20
 66
1
 10
0.0000
 20
0.0000
 30
0.0000
 40
0.0250
 41
0.0250
 70
0
  0
VERTEX
  8
20
 10
70.0609
 20
3.8684
 30
0.0000
 42
0.4142
  0
VERTEX
  8
20
 10
72.6009
 20
6.4084
 30
0.0000
  0
SEQEND
  8
0
  0
POLYLINE
  8
20
 66
1
 10
0.0000
 20
0.0000
 30
0.0000
 40
0.0125
 41
0.0125
 70
0
  0
VERTEX
  8
20
 10
70.0609
 20
3.8746
 30
0.0000
 42
1.0000
  0
VERTEX
  8
20
 10
70.0609
 20
3.8621
 30
0.0000
  0
SEQEND
  8
0
  0
POLYLINE
  8
20
 66
1
 10
0.0000
 20
0.0000
 30
0.0000
 40
0.0125
 41
0.0125
 70
0
  0
VERTEX
  8
20
 10
72.6071
 20
6.4084
 30
0.0000
 42
1.0000
  0
VERTEX
  8
20
 10
72.5946
 20
6.4084
 30
0.0000
  0
SEQEND
  8
0
  0
POLYLINE
  8
20
 66
1
 10
0.0000
 20
0.0000
 30
0.0000
 40
0.0250
 41
0.0250
 70
0
  0
VERTEX
  8
20
 10
70.0609
 20
3.8684
 30
0.0000
  0
VERTEX
  8
20
 10
10.1412
 20
3.8684
 30
0.0000
  0
SEQEND
  8
0
  0
POLYLINE
  8
20
 66
1
 10
0.0000
 20
0.0000
 30
0.0000
 40
0.0125
 41
0.0125
 70
0
  0
VERTEX
  8
20
 10
10.1412
 20
3.8746
 30
0.0000
 42
1.0000
  0
VERTEX
  8
20
 10
10.1412
 20
3.8621
 30
0.0000
  0
SEQEND
  8
0
  0
POLYLINE
  8
20
 66
1
 10
0.0000
 20
0.0000
 30
0.0000
 40
0.0125
 41
0.0125
 70
0
  0
VERTEX
  8
20
 10
70.0609
 20
3.8621
 30
0.0000
 42
1.0000
  0
VERTEX
  8
20
 10
70.0609
 20
3.8746
 30
0.0000
  0
SEQEND
  8
0
  0
POLYLINE
  8
20
 66
1
 10
0.0000
 20
0.0000
 30
0.0000
 40
0.0250
 41
0.0250
 70
0
  0
VERTEX
  8
20
 10
7.6012
 20
6.4032
 30
0.0000
 42
0.4136
  0
VERTEX
  8
20
 10
10.1412
 20
3.8684
 30
0.0000
  0
SEQEND
  8
0
  0
POLYLINE
  8
20
 66
1
 10
0.0000
 20
0.0000
 30
0.0000
 40
0.0125
 41
0.0125
 70
0
  0
VERTEX
  8
20
 10
7.6075
 20
6.4032
 30
0.0000
 42
1.0000
  0
VERTEX
  8
20
 10
7.5950
 20
6.4032
 30
0.0000
  0
SEQEND
  8
0
  0
POLYLINE
  8
20
 66
1
 10
0.0000
 20
0.0000
 30
0.0000
 40
0.0125
 41
0.0125
 70
0
  0
VERTEX
  8
20
 10
10.1412
 20
3.8621
 30
0.0000
 42
1.0000
  0
VERTEX
  8
20
 10
10.1412
 20
3.8746
 30
0.0000
  0
SEQEND
  8
0
  0
POLYLINE
  8
20
 66
1
 10
0.0000
 20
0.0000
 30
0.0000
 40
0.0250
 41
0.0250
 70
0
  0
VERTEX
  8
20
 10
7.6012
 20
6.4032
 30
0.0000
  0
VERTEX
  8
20
 10
7.6018
 20
28.1885
 30
0.0000
  0
SEQEND
  8
0
  0
POLYLINE
  8
20
 66
1
 10
0.0000
 20
0.0000
 30
0.0000
 40
0.0125
 41
0.0125
 70
0
  0
VERTEX
  8
20
 10
7.6080
 20
28.1885
 30
0.0000
 42
1.0000
  0
VERTEX
  8
20
 10
7.5956
 20
28.1885
 30
0.0000
  0
SEQEND
  8
0
  0
POLYLINE
  8
20
 66
1
 10
0.0000
 20
0.0000
 30
0.0000
 40
0.0125
 41
0.0125
 70
0
  0
VERTEX
  8
20
 10
7.5950
 20
6.4032
 30
0.0000
 42
1.0000
  0
VERTEX
  8
20
 10
7.6075
 20
6.4032
 30
0.0000
  0
SEQEND
  8
0
  0
POLYLINE
  8
20
 66
1
 10
0.0000
 20
0.0000
 30
0.0000
 40
0.0250
 41
0.0250
 70
0
  0
VERTEX
  8
20
 10
7.6018
 20
28.1885
 30
0.0000
  0
VERTEX
  8
20
 10
8.8013
 20
28.1885
 30
0.0000
  0
SEQEND
  8
0
  0
POLYLINE
  8
20
 66
1
 10
0.0000
 20
0.0000
 30
0.0000
 40
0.0125
 41
0.0125
 70
0
  0
VERTEX
  8
20
 10
8.8013
 20
28.1823
 30
0.0000
 42
1.0000
  0
VERTEX
  8
20
 10
8.8013
 20
28.1948
 30
0.0000
  0
SEQEND
  8
0
  0
POLYLINE
  8
20
 66
1
 10
0.0000
 20
0.0000
 30
0.0000
 40
0.0125
 41
0.0125
 70
0
  0
VERTEX
  8
20
 10
7.6018
 20
28.1948
 30
0.0000
 42
1.0000
  0
VERTEX
  8
20
 10
7.6018
 20
28.1823
 30
0.0000
  0
SEQEND
  8
0
  0
POLYLINE
  8
20
 66
1
 10
0.0000
 20
0.0000
 30
0.0000
 40
0.0250
 41
0.0250
 70
0
  0
VERTEX
  8
20
 10
8.8013
 20
28.1885
 30
0.0000
  0
VERTEX
  8
20
 10
8.8016
 20
29.2883
 30
0.0000
  0
SEQEND
  8
0
  0
POLYLINE
  8
20
 66
1
 10
0.0000
 20
0.0000
 30
0.0000
 40
0.0125
 41
0.0125
 70
0
  0
VERTEX
  8
20
 10
8.8078
 20
29.2883
 30
0.0000
 42
1.0000
  0
VERTEX
  8
20
 10
8.7953
 20
29.2883
 30
0.0000
  0
SEQEND
  8
0
  0
POLYLINE
  8
20
 66
1
 10
0.0000
 20
0.0000
 30
0.0000
 40
0.0125
 41
0.0125
 70
0
  0
VERTEX
  8
20
 10
8.7951
 20
28.1885
 30
0.0000
 42
1.0000
  0
VERTEX
  8
20
 10
8.8075
 20
28.1885
 30
0.0000
  0
SEQEND
  8
0
  0
POLYLINE
  8
20
 66
1
 10
0.0000
 20
0.0000
 30
0.0000
 40
0.0250
 41
0.0250
 70
0
  0
VERTEX
  8
20
 10
8.8016
 20
29.2883
 30
0.0000
  0
VERTEX
  8
20
 10
10.1018
 20
29.2885
 30
0.0000
  0
SEQEND
  8
0
  0
POLYLINE
  8
20
 66
1
 10
0.0000
 20
0.0000
 30
0.0000
 40
0.0125
 41
0.0125
 70
0
  0
VERTEX
  8
20
 10
10.1018
 20
29.2823
 30
0.0000
 42
1.0000
  0
VERTEX
  8
20
 10
10.1018
 20
29.2947
 30
0.0000
  0
SEQEND
  8
0
  0
POLYLINE
  8
20
 66
1
 10
0.0000
 20
0.0000
 30
0.0000
 40
0.0125
 41
0.0125
 70
0
  0
VERTEX
  8
20
 10
8.8015
 20
29.2945
 30
0.0000
 42
1.0000
  0
VERTEX
  8
20
 10
8.8016
 20
29.2820
 30
0.0000
  0
SEQEND
  8
0
  0
POLYLINE
  8
20
 66
1
 10
0.0000
 20
0.0000
 30
0.0000
 40
0.0250
 41
0.0250
 70
0
  0
VERTEX
  8
20
 10
10.1018
 20
29.2885
 30
0.0000
  0
VERTEX
  8
20
 10
10.1015
 20
32.8882
 30
0.0000
  0
SEQEND
  8
0
  0
POLYLINE
  8
20
 66
1
 10
0.0000
 20
0.0000
 30
0.0000
 40
0.0125
 41
0.0125
 70
0
  0
VERTEX
  8
20
 10
10.1078
 20
32.8882
 30
0.0000
 42
1.0000
  0
VERTEX
  8
20
 10
10.0953
 20
32.8882
 30
0.0000
  0
SEQEND
  8
0
  0
POLYLINE
  8
20
 66
1
 10
0.0000
 20
0.0000
 30
0.0000
 40
0.0125
 41
0.0125
 70
0
  0
VERTEX
  8
20
 10
10.0955
 20
29.2885
 30
0.0000
 42
1.0000
  0
VERTEX
  8
20
 10
10.1080
 20
29.2885
 30
0.0000
  0
SEQEND
  8
0
  0
POLYLINE
  8
20
 66
1
 10
0.0000
 20
0.0000
 30
0.0000
 40
0.0250
 41
0.0250
 70
0
  0
VERTEX
  8
20
 10
10.1015
 20
32.8882
 30
0.0000
  0
VERTEX
  8
20
 10
8.8013
 20
32.8885
 30
0.0000
  0
SEQEND
  8
0
  0
POLYLINE
  8
20
 66
1
 10
0.0000
 20
0.0000
 30
0.0000
 40
0.0125
 41
0.0125
 70
0
  0
VERTEX
  8
20
 10
8.8013
 20
32.8947
 30
0.0000
 42
1.0000
  0
VERTEX
  8
20
 10
8.8013
 20
32.8822
 30
0.0000
  0
SEQEND
  8
0
  0
POLYLINE
  8
20
 66
1
 10
0.0000
 20
0.0000
 30
0.0000
 40
0.0125
 41
0.0125
 70
0
  0
VERTEX
  8
20
 10
10.1015
 20
32.8820
 30
0.0000
 42
1.0000
  0
VERTEX
  8
20
 10
10.1015
 20
32.8945
 30
0.0000
  0
SEQEND
  8
0
  0
POLYLINE
  8
20
 66
1
 10
0.0000
 20
0.0000
 30
0.0000
 40
0.0250
 41
0.0250
 70
0
  0
VERTEX
  8
20
 10
8.8013
 20
32.8885
 30
0.0000
  0
VERTEX
  8
20
 10
8.8013
 20
33.9885
 30
0.0000
  0
SEQEND
  8
0
  0
POLYLINE
  8
20
 66
1
 10
0.0000
 20
0.0000
 30
0.0000
 40
0.0125
 41
0.0125
 70
0
  0
VERTEX
  8
20
 10
8.8076
 20
33.9885
 30
0.0000
 42
1.0000
  0
VERTEX
  8
20
 10
8.7951
 20
33.9885
 30
0.0000
  0
SEQEND
  8
0
  0
POLYLINE
  8
20
 66
1
 10
0.0000
 20
0.0000
 30
0.0000
 40
0.0125
 41
0.0125
 70
0
  0
VERTEX
  8
20
 10
8.7951
 20
32.8885
 30
0.0000
 42
1.0000
  0
VERTEX
  8
20
 10
8.8076
 20
32.8885
 30
0.0000
  0
SEQEND
  8
0
  0
POLYLINE
  8
20
 66
1
 10
0.0000
 20
0.0000
 30
0.0000
 40
0.0250
 41
0.0250
 70
0
  0
VERTEX
  8
20
 10
8.8013
 20
33.9885
 30
0.0000
  0
VERTEX
  8
20
 10
7.6018
 20
33.9885
 30
0.0000
  0
SEQEND
  8
0
  0
POLYLINE
  8
20
 66
1
 10
0.0000
 20
0.0000
 30
0.0000
 40
0.0125
 41
0.0125
 70
0
  0
VERTEX
  8
20
 10
7.6018
 20
33.9947
 30
0.0000
 42
1.0000
  0
VERTEX
  8
20
 10
7.6018
 20
33.9822
 30
0.0000
  0
SEQEND
  8
0
  0
POLYLINE
  8
20
 66
1
 10
0.0000
 20
0.0000
 30
0.0000
 40
0.0125
 41
0.0125
 70
0
  0
VERTEX
  8
20
 10
8.8013
 20
33.9822
 30
0.0000
 42
1.0000
  0
VERTEX
  8
20
 10
8.8013
 20
33.9947
 30
0.0000
  0
SEQEND
  8
0
  0
POLYLINE
  8
20
 66
1
 10
0.0000
 20
0.0000
 30
0.0000
 40
0.0250
 41
0.0250
 70
0
  0
VERTEX
  8
20
 10
7.6018
 20
33.9885
 30
0.0000
  0
VERTEX
  8
20
 10
7.6016
 20
71.9965
 30
0.0000
  0
SEQEND
  8
0
  0
POLYLINE
  8
20
 66
1
 10
0.0000
 20
0.0000
 30
0.0000
 40
0.0125
 41
0.0125
 70
0
  0
VERTEX
  8
20
 10
7.6078
 20
71.9965
 30
0.0000
 42
1.0000
  0
VERTEX
  8
20
 10
7.5953
 20
71.9965
 30
0.0000
  0
SEQEND
  8
0
  0
POLYLINE
  8
20
 66
1
 10
0.0000
 20
0.0000
 30
0.0000
 40
0.0125
 41
0.0125
 70
0
  0
VERTEX
  8
20
 10
7.5956
 20
33.9885
 30
0.0000
 42
1.0000
  0
VERTEX
  8
20
 10
7.6080
 20
33.9885
 30
0.0000
  0
SEQEND
  8
0
  0
POLYLINE
  8
20
 66
1
 10
0.0000
 20
0.0000
 30
0.0000
 40
0.0250
 41
0.0250
 70
0
  0
VERTEX
  8
20
 10
7.6016
 20
71.9965
 30
0.0000
  0
VERTEX
  8
20
 10
3.9416
 20
71.9965
 30
0.0000
  0
SEQEND
  8
0
  0
POLYLINE
  8
20
 66
1
 10
0.0000
 20
0.0000
 30
0.0000
 40
0.0125
 41
0.0125
 70
0
  0
VERTEX
  8
20
 10
3.9416
 20
72.0027
 30
0.0000
 42
1.0000
  0
VERTEX
  8
20
 10
3.9416
 20
71.9902
 30
0.0000
  0
SEQEND
  8
0
  0
POLYLINE
  8
20
 66
1
 10
0.0000
 20
0.0000
 30
0.0000
 40
0.0125
 41
0.0125
 70
0
  0
VERTEX
  8
20
 10
7.6016
 20
71.9902
 30
0.0000
 42
1.0000
  0
VERTEX
  8
20
 10
7.6015
 20
72.0027
 30
0.0000
  0
SEQEND
  8
0
  0
POLYLINE
  8
20
 66
1
 10
0.0000
 20
0.0000
 30
0.0000
 40
0.0250
 41
0.0250
 70
0
  0
VERTEX
  8
20
 10
1.4016
 20
74.5365
 30
0.0000
 42
0.3520
  0
VERTEX
  8
20
 10
3.9416
 20
71.9965
 30
0.0000
  0
SEQEND
  8
0
  0
POLYLINE
  8
20
 66
1
 10
0.0000
 20
0.0000
 30
0.0000
 40
0.0125
 41
0.0125
 70
0
  0
VERTEX
  8
20
 10
1.4078
 20
74.5372
 30
0.0000
 42
1.0000
  0
VERTEX
  8
20
 10
1.3954
 20
74.5358
 30
0.0000
  0
SEQEND
  8
0
  0
POLYLINE
  8
20
 66
1
 10
0.0000
 20
0.0000
 30
0.0000
 40
0.0125
 41
0.0125
 70
0
  0
VERTEX
  8
20
 10
3.9409
 20
71.9903
 30
0.0000
 42
1.0000
  0
VERTEX
  8
20
 10
3.9423
 20
72.0027
 30
0.0000
  0
SEQEND
  8
0
  0
POLYLINE
  8
20
 66
1
 10
0.0000
 20
0.0000
 30
0.0000
 40
0.0250
 41
0.0250
 70
0
  0
VERTEX
  8
20
 10
1.4016
 20
74.5365
 30
0.0000
  0
VERTEX
  8
20
 10
1.4016
 20
83.6400
 30
0.0000
  0
SEQEND
  8
0
  0
POLYLINE
  8
20
 66
1
 10
0.0000
 20
0.0000
 30
0.0000
 40
0.0125
 41
0.0125
 70
0
  0
VERTEX
  8
20
 10
1.4078
 20
83.6400
 30
0.0000
 42
1.0000
  0
VERTEX
  8
20
 10
1.3953
 20
83.6400
 30
0.0000
  0
SEQEND
  8
0
  0
POLYLINE
  8
20
 66
1
 10
0.0000
 20
0.0000
 30
0.0000
 40
0.0125
 41
0.0125
 70
0
  0
VERTEX
  8
20
 10
1.3953
 20
74.5365
 30
0.0000
 42
1.0000
  0
VERTEX
  8
20
 10
1.4078
 20
74.5365
 30
0.0000
  0
SEQEND
  8
0
  0
POLYLINE
  8
20
 66
1
 10
0.0000
 20
0.0000
 30
0.0000
 40
0.0250
 41
0.0250
 70
0
  0
VERTEX
  8
20
 10
3.9415
 20
86.1800
 30
0.0000
 42
0.4142
  0
VERTEX
  8
20
 10
1.4016
 20
83.6400
 30
0.0000
  0
SEQEND
  8
0
  0
POLYLINE
  8
20
 66
1
 10
0.0000
 20
0.0000
 30
0.0000
 40
0.0125
 41
0.0125
 70
0
  0
VERTEX
  8
20
 10
3.9415
 20
86.1737
 30
0.0000
 42
1.0000
  0
VERTEX
  8
20
 10
3.9415
 20
86.1862
 30
0.0000
  0
SEQEND
  8
0
  0
POLYLINE
  8
20
 66
1
 10
0.0000
 20
0.0000
 30
0.0000
 40
0.0125
 41
0.0125
 70
0
  0
VERTEX
  8
20
 10
1.3953
 20
83.6400
 30
0.0000
 42
1.0000
  0
VERTEX
  8
20
 10
1.4078
 20
83.6400
 30
0.0000
  0
SEQEND
  8
0
  0
POLYLINE
  8
20
 66
1
 10
0.0000
 20
0.0000
 30
0.0000
 40
0.0250
 41
0.0250
 70
0
  0
VERTEX
  8
20
 10
3.9415
 20
86.1800
 30
0.0000
  0
VERTEX
  8
20
 10
7.6015
 20
86.1801
 30
0.0000
  0
SEQEND
  8
0
  0
POLYLINE
  8
20
 66
1
 10
0.0000
 20
0.0000
 30
0.0000
 40
0.0125
 41
0.0125
 70
0
  0
VERTEX
  8
20
 10
7.6015
 20
86.1739
 30
0.0000
 42
1.0000
  0
VERTEX
  8
20
 10
7.6015
 20
86.1864
 30
0.0000
  0
SEQEND
  8
0
  0
POLYLINE
  8
20
 66
1
 10
0.0000
 20
0.0000
 30
0.0000
 40
0.0125
 41
0.0125
 70
0
  0
VERTEX
  8
20
 10
3.9415
 20
86.1862
 30
0.0000
 42
1.0000
  0
VERTEX
  8
20
 10
3.9415
 20
86.1737
 30
0.0000
  0
SEQEND
  8
0
  0
POLYLINE
  8
20
 66
1
 10
0.0000
 20
0.0000
 30
0.0000
 40
0.0250
 41
0.0250
 70
0
  0
VERTEX
  8
20
 10
46.1013
 20
86.6484
 30
0.0000
  0
VERTEX
  8
20
 10
46.1013
 20
82.2279
 30
0.0000
  0
SEQEND
  8
0
  0
POLYLINE
  8
20
 66
1
 10
0.0000
 20
0.0000
 30
0.0000
 40
0.0125
 41
0.0125
 70
0
  0
VERTEX
  8
20
 10
46.0951
 20
82.2279
 30
0.0000
 42
1.0000
  0
VERTEX
  8
20
 10
46.1076
 20
82.2279
 30
0.0000
  0
SEQEND
  8
0
  0
POLYLINE
  8
20
 66
1
 10
0.0000
 20
0.0000
 30
0.0000
 40
0.0125
 41
0.0125
 70
0
  0
VERTEX
  8
20
 10
46.1076
 20
86.6484
 30
0.0000
 42
1.0000
  0
VERTEX
  8
20
 10
46.0951
 20
86.6484
 30
0.0000
  0
SEQEND
  8
0
  0
POLYLINE
  8
20
 66
1
 10
0.0000
 20
0.0000
 30
0.0000
 40
0.0250
 41
0.0250
 70
0
  0
VERTEX
  8
20
 10
43.5613
 20
79.6879
 30
0.0000
 42
0.4142
  0
VERTEX
  8
20
 10
46.1013
 20
82.2279
 30
0.0000
  0
SEQEND
  8
0
  0
POLYLINE
  8
20
 66
1
 10
0.0000
 20
0.0000
 30
0.0000
 40
0.0125
 41
0.0125
 70
0
  0
VERTEX
  8
20
 10
43.5613
 20
79.6942
 30
0.0000
 42
1.0000
  0
VERTEX
  8
20
 10
43.5613
 20
79.6817
 30
0.0000
  0
SEQEND
  8
0
  0
POLYLINE
  8
20
 66
1
 10
0.0000
 20
0.0000
 30
0.0000
 40
0.0125
 41
0.0125
 70
0
  0
VERTEX
  8
20
 10
46.1076
 20
82.2279
 30
0.0000
 42
1.0000
  0
VERTEX
  8
20
 10
46.0951
 20
82.2279
 30
0.0000
  0
SEQEND
  8
0
  0
POLYLINE
  8
20
 66
1
 10
0.0000
 20
0.0000
 30
0.0000
 40
0.0250
 41
0.0250
 70
0
  0
VERTEX
  8
20
 10
43.5613
 20
79.6879
 30
0.0000
  0
VERTEX
  8
20
 10
36.6411
 20
79.6879
 30
0.0000
  0
SEQEND
  8
0
  0
POLYLINE
  8
20
 66
1
 10
0.0000
 20
0.0000
 30
0.0000
 40
0.0125
 41
0.0125
 70
0
  0
VERTEX
  8
20
 10
36.6411
 20
79.6942
 30
0.0000
 42
1.0000
  0
VERTEX
  8
20
 10
36.6411
 20
79.6817
 30
0.0000
  0
SEQEND
  8
0
  0
POLYLINE
  8
20
 66
1
 10
0.0000
 20
0.0000
 30
0.0000
 40
0.0125
 41
0.0125
 70
0
  0
VERTEX
  8
20
 10
43.5613
 20
79.6817
 30
0.0000
 42
1.0000
  0
VERTEX
  8
20
 10
43.5613
 20
79.6942
 30
0.0000
  0
SEQEND
  8
0
  0
POLYLINE
  8
20
 66
1
 10
0.0000
 20
0.0000
 30
0.0000
 40
0.0250
 41
0.0250
 70
0
  0
VERTEX
  8
20
 10
34.1011
 20
82.2279
 30
0.0000
 42
0.4142
  0
VERTEX
  8
20
 10
36.6411
 20
79.6879
 30
0.0000
  0
SEQEND
  8
0
  0
POLYLINE
  8
20
 66
1
 10
0.0000
 20
0.0000
 30
0.0000
 40
0.0125
 41
0.0125
 70
0
  0
VERTEX
  8
20
 10
34.1074
 20
82.2279
 30
0.0000
 42
1.0000
  0
VERTEX
  8
20
 10
34.0949
 20
82.2279
 30
0.0000
  0
SEQEND
  8
0
  0
POLYLINE
  8
20
 66
1
 10
0.0000
 20
0.0000
 30
0.0000
 40
0.0125
 41
0.0125
 70
0
  0
VERTEX
  8
20
 10
36.6411
 20
79.6817
 30
0.0000
 42
1.0000
  0
VERTEX
  8
20
 10
36.6411
 20
79.6942
 30
0.0000
  0
SEQEND
  8
0
  0
POLYLINE
  8
20
 66
1
 10
0.0000
 20
0.0000
 30
0.0000
 40
0.0250
 41
0.0250
 70
0
  0
VERTEX
  8
20
 10
34.1011
 20
82.2279
 30
0.0000
  0
VERTEX
  8
20
 10
34.1011
 20
86.6484
 30
0.0000
  0
SEQEND
  8
0
  0
POLYLINE
  8
20
 66
1
 10
0.0000
 20
0.0000
 30
0.0000
 40
0.0125
 41
0.0125
 70
0
  0
VERTEX
  8
20
 10
34.1074
 20
86.6484
 30
0.0000
 42
1.0000
  0
VERTEX
  8
20
 10
34.0949
 20
86.6484
 30
0.0000
  0
SEQEND
  8
0
  0
POLYLINE
  8
20
 66
1
 10
0.0000
 20
0.0000
 30
0.0000
 40
0.0125
 41
0.0125
 70
0
  0
VERTEX
  8
20
 10
34.0949
 20
82.2279
 30
0.0000
 42
1.0000
  0
VERTEX
  8
20
 10
34.1074
 20
82.2279
 30
0.0000
  0
SEQEND
  8
0
  0
POLYLINE
  8
20
 66
1
 10
0.0000
 20
0.0000
 30
0.0000
 40
0.0250
 41
0.0250
 70
0
  0
VERTEX
  8
20
 10
36.6411
 20
89.1884
 30
0.0000
 42
0.4142
  0
VERTEX
  8
20
 10
34.1011
 20
86.6484
 30
0.0000
  0
SEQEND
  8
0
  0
POLYLINE
  8
20
 66
1
 10
0.0000
 20
0.0000
 30
0.0000
 40
0.0125
 41
0.0125
 70
0
  0
VERTEX
  8
20
 10
36.6411
 20
89.1821
 30
0.0000
 42
1.0000
  0
VERTEX
  8
20
 10
36.6411
 20
89.1946
 30
0.0000
  0
SEQEND
  8
0
  0
POLYLINE
  8
20
 66
1
 10
0.0000
 20
0.0000
 30
0.0000
 40
0.0125
 41
0.0125
 70
0
  0
VERTEX
  8
20
 10
34.0949
 20
86.6484
 30
0.0000
 42
1.0000
  0
VERTEX
  8
20
 10
34.1074
 20
86.6484
 30
0.0000
  0
SEQEND
  8
0
  0
POLYLINE
  8
20
 66
1
 10
0.0000
 20
0.0000
 30
0.0000
 40
0.0250
 41
0.0250
 70
0
  0
VERTEX
  8
20
 10
36.6411
 20
89.1884
 30
0.0000
  0
VERTEX
  8
20
 10
43.5613
 20
89.1884
 30
0.0000
  0
SEQEND
  8
0
  0
POLYLINE
  8
20
 66
1
 10
0.0000
 20
0.0000
 30
0.0000
 40
0.0125
 41
0.0125
 70
0
  0
VERTEX
  8
20
 10
43.5613
 20
89.1821
 30
0.0000
 42
1.0000
  0
VERTEX
  8
20
 10
43.5613
 20
89.1946
 30
0.0000
  0
SEQEND
  8
0
  0
POLYLINE
  8
20
 66
1
 10
0.0000
 20
0.0000
 30
0.0000
 40
0.0125
 41
0.0125
 70
0
  0
VERTEX
  8
20
 10
36.6411
 20
89.1946
 30
0.0000
 42
1.0000
  0
VERTEX
  8
20
 10
36.6411
 20
89.1821
 30
0.0000
  0
SEQEND
  8
0
  0
POLYLINE
  8
20
 66
1
 10
0.0000
 20
0.0000
 30
0.0000
 40
0.0250
 41
0.0250
 70
0
  0
VERTEX
  8
20
 10
46.1013
 20
86.6484
 30
0.0000
 42
0.4142
  0
VERTEX
  8
20
 10
43.5613
 20
89.1884
 30
0.0000
  0
SEQEND
  8
0
  0
POLYLINE
  8
20
 66
1
 10
0.0000
 20
0.0000
 30
0.0000
 40
0.0125
 41
0.0125
 70
0
  0
VERTEX
  8
20
 10
46.0951
 20
86.6484
 30
0.0000
 42
1.0000
  0
VERTEX
  8
20
 10
46.1076
 20
86.6484
 30
0.0000
  0
SEQEND
  8
0
  0
POLYLINE
  8
20
 66
1
 10
0.0000
 20
0.0000
 30
0.0000
 40
0.0125
 41
0.0125
 70
0
  0
VERTEX
  8
20
 10
43.5613
 20
89.1946
 30
0.0000
 42
1.0000
  0
VERTEX
  8
20
 10
43.5613
 20
89.1821
 30
0.0000
  0
SEQEND
  8
0
  0
POLYLINE
  8
20
 66
1
 10
0.0000
 20
0.0000
 30
0.0000
 40
0.0250
 41
0.0250
 70
0
  0
VERTEX
  8
20
 10
23.9015
 20
25.1885
 30
0.0000
  0
VERTEX
  8
20
 10
26.3014
 20
25.1885
 30
0.0000
  0
SEQEND
  8
0
  0
POLYLINE
  8
20
 66
1
 10
0.0000
 20
0.0000
 30
0.0000
 40
0.0125
 41
0.0125
 70
0
  0
VERTEX
  8
20
 10
26.3014
 20
25.1823
 30
0.0000
 42
1.0000
  0
VERTEX
  8
20
 10
26.3014
 20
25.1948
 30
0.0000
  0
SEQEND
  8
0
  0
POLYLINE
  8
20
 66
1
 10
0.0000
 20
0.0000
 30
0.0000
 40
0.0125
 41
0.0125
 70
0
  0
VERTEX
  8
20
 10
23.9015
 20
25.1948
 30
0.0000
 42
1.0000
  0
VERTEX
  8
20
 10
23.9015
 20
25.1823
 30
0.0000
  0
SEQEND
  8
0
  0
POLYLINE
  8
20
 66
1
 10
0.0000
 20
0.0000
 30
0.0000
 40
0.0250
 41
0.0250
 70
0
  0
VERTEX
  8
20
 10
25.1014
 20
26.3885
 30
0.0000
  0
VERTEX
  8
20
 10
25.1014
 20
23.9885
 30
0.0000
  0
SEQEND
  8
0
  0
POLYLINE
  8
20
 66
1
 10
0.0000
 20
0.0000
 30
0.0000
 40
0.0125
 41
0.0125
 70
0
  0
VERTEX
  8
20
 10
25.0952
 20
23.9885
 30
0.0000
 42
1.0000
  0
VERTEX
  8
20
 10
25.1077
 20
23.9885
 30
0.0000
  0
SEQEND
  8
0
  0
POLYLINE
  8
20
 66
1
 10
0.0000
 20
0.0000
 30
0.0000
 40
0.0125
 41
0.0125
 70
0
  0
VERTEX
  8
20
 10
25.1077
 20
26.3885
 30
0.0000
 42
1.0000
  0
VERTEX
  8
20
 10
25.0952
 20
26.3885
 30
0.0000
  0
SEQEND
  8
0
  0
POLYLINE
  8
20
 66
1
 10
0.0000
 20
0.0000
 30
0.0000
 40
0.0250
 41
0.0250
 70
0
  0
VERTEX
  8
20
 10
53.9013
 20
25.1885
 30
0.0000
  0
VERTEX
  8
20
 10
56.3012
 20
25.1885
 30
0.0000
  0
SEQEND
  8
0
  0
POLYLINE
  8
20
 66
1
 10
0.0000
 20
0.0000
 30
0.0000
 40
0.0125
 41
0.0125
 70
0
  0
VERTEX
  8
20
 10
56.3012
 20
25.1823
 30
0.0000
 42
1.0000
  0
VERTEX
  8
20
 10
56.3012
 20
25.1948
 30
0.0000
  0
SEQEND
  8
0
  0
POLYLINE
  8
20
 66
1
 10
0.0000
 20
0.0000
 30
0.0000
 40
0.0125
 41
0.0125
 70
0
  0
VERTEX
  8
20
 10
53.9013
 20
25.1948
 30
0.0000
 42
1.0000
  0
VERTEX
  8
20
 10
53.9013
 20
25.1823
 30
0.0000
  0
SEQEND
  8
0
  0
POLYLINE
  8
20
 66
1
 10
0.0000
 20
0.0000
 30
0.0000
 40
0.0250
 41
0.0250
 70
0
  0
VERTEX
  8
20
 10
55.1013
 20
26.3885
 30
0.0000
  0
VERTEX
  8
20
 10
55.1013
 20
23.9885
 30
0.0000
  0
SEQEND
  8
0
  0
POLYLINE
  8
20
 66
1
 10
0.0000
 20
0.0000
 30
0.0000
 40
0.0125
 41
0.0125
 70
0
  0
VERTEX
  8
20
 10
55.0950
 20
23.9885
 30
0.0000
 42
1.0000
  0
VERTEX
  8
20
 10
55.1075
 20
23.9885
 30
0.0000
  0
SEQEND
  8
0
  0
POLYLINE
  8
20
 66
1
 10
0.0000
 20
0.0000
 30
0.0000
 40
0.0125
 41
0.0125
 70
0
  0
VERTEX
  8
20
 10
55.1075
 20
26.3885
 30
0.0000
 42
1.0000
  0
VERTEX
  8
20
 10
55.0950
 20
26.3885
 30
0.0000
  0
SEQEND
  8
0
  0
POLYLINE
  8
20
 66
1
 10
0.0000
 20
0.0000
 30
0.0000
 40
0.0250
 41
0.0250
 70
0
  0
VERTEX
  8
20
 10
11.4015
 20
61.1883
 30
0.0000
  0
VERTEX
  8
20
 10
13.8015
 20
61.1883
 30
0.0000
  0
SEQEND
  8
0
  0
POLYLINE
  8
20
 66
1
 10
0.0000
 20
0.0000
 30
0.0000
 40
0.0125
 41
0.0125
 70
0
  0
VERTEX
  8
20
 10
13.8015
 20
61.1821
 30
0.0000
 42
1.0000
  0
VERTEX
  8
20
 10
13.8015
 20
61.1946
 30
0.0000
  0
SEQEND
  8
0
  0
POLYLINE
  8
20
 66
1
 10
0.0000
 20
0.0000
 30
0.0000
 40
0.0125
 41
0.0125
 70
0
  0
VERTEX
  8
20
 10
11.4015
 20
61.1946
 30
0.0000
 42
1.0000
  0
VERTEX
  8
20
 10
11.4015
 20
61.1821
 30
0.0000
  0
SEQEND
  8
0
  0
POLYLINE
  8
20
 66
1
 10
0.0000
 20
0.0000
 30
0.0000
 40
0.0250
 41
0.0250
 70
0
  0
VERTEX
  8
20
 10
12.6015
 20
62.3883
 30
0.0000
  0
VERTEX
  8
20
 10
12.6015
 20
59.9883
 30
0.0000
  0
SEQEND
  8
0
  0
POLYLINE
  8
20
 66
1
 10
0.0000
 20
0.0000
 30
0.0000
 40
0.0125
 41
0.0125
 70
0
  0
VERTEX
  8
20
 10
12.5953
 20
59.9883
 30
0.0000
 42
1.0000
  0
VERTEX
  8
20
 10
12.6078
 20
59.9883
 30
0.0000
  0
SEQEND
  8
0
  0
POLYLINE
  8
20
 66
1
 10
0.0000
 20
0.0000
 30
0.0000
 40
0.0125
 41
0.0125
 70
0
  0
VERTEX
  8
20
 10
12.6078
 20
62.3883
 30
0.0000
 42
1.0000
  0
VERTEX
  8
20
 10
12.5953
 20
62.3883
 30
0.0000
  0
SEQEND
  8
0
  0
POLYLINE
  8
20
 66
1
 10
0.0000
 20
0.0000
 30
0.0000
 40
0.0250
 41
0.0250
 70
0
  0
VERTEX
  8
20
 10
23.9015
 20
61.1883
 30
0.0000
  0
VERTEX
  8
20
 10
26.3014
 20
61.1883
 30
0.0000
  0
SEQEND
  8
0
  0
POLYLINE
  8
20
 66
1
 10
0.0000
 20
0.0000
 30
0.0000
 40
0.0125
 41
0.0125
 70
0
  0
VERTEX
  8
20
 10
26.3014
 20
61.1821
 30
0.0000
 42
1.0000
  0
VERTEX
  8
20
 10
26.3014
 20
61.1946
 30
0.0000
  0
SEQEND
  8
0
  0
POLYLINE
  8
20
 66
1
 10
0.0000
 20
0.0000
 30
0.0000
 40
0.0125
 41
0.0125
 70
0
  0
VERTEX
  8
20
 10
23.9015
 20
61.1946
 30
0.0000
 42
1.0000
  0
VERTEX
  8
20
 10
23.9015
 20
61.1821
 30
0.0000
  0
SEQEND
  8
0
  0
POLYLINE
  8
20
 66
1
 10
0.0000
 20
0.0000
 30
0.0000
 40
0.0250
 41
0.0250
 70
0
  0
VERTEX
  8
20
 10
25.1014
 20
62.3883
 30
0.0000
  0
VERTEX
  8
20
 10
25.1014
 20
59.9883
 30
0.0000
  0
SEQEND
  8
0
  0
POLYLINE
  8
20
 66
1
 10
0.0000
 20
0.0000
 30
0.0000
 40
0.0125
 41
0.0125
 70
0
  0
VERTEX
  8
20
 10
25.0952
 20
59.9883
 30
0.0000
 42
1.0000
  0
VERTEX
  8
20
 10
25.1077
 20
59.9883
 30
0.0000
  0
SEQEND
  8
0
  0
POLYLINE
  8
20
 66
1
 10
0.0000
 20
0.0000
 30
0.0000
 40
0.0125
 41
0.0125
 70
0
  0
VERTEX
  8
20
 10
25.1077
 20
62.3883
 30
0.0000
 42
1.0000
  0
VERTEX
  8
20
 10
25.0952
 20
62.3883
 30
0.0000
  0
SEQEND
  8
0
  0
POLYLINE
  8
20
 66
1
 10
0.0000
 20
0.0000
 30
0.0000
 40
0.0250
 41
0.0250
 70
0
  0
VERTEX
  8
20
 10
53.9013
 20
61.1883
 30
0.0000
  0
VERTEX
  8
20
 10
56.3012
 20
61.1883
 30
0.0000
  0
SEQEND
  8
0
  0
POLYLINE
  8
20
 66
1
 10
0.0000
 20
0.0000
 30
0.0000
 40
0.0125
 41
0.0125
 70
0
  0
VERTEX
  8
20
 10
56.3012
 20
61.1821
 30
0.0000
 42
1.0000
  0
VERTEX
  8
20
 10
56.3012
 20
61.1946
 30
0.0000
  0
SEQEND
  8
0
  0
POLYLINE
  8
20
 66
1
 10
0.0000
 20
0.0000
 30
0.0000
 40
0.0125
 41
0.0125
 70
0
  0
VERTEX
  8
20
 10
53.9013
 20
61.1946
 30
0.0000
 42
1.0000
  0
VERTEX
  8
20
 10
53.9013
 20
61.1821
 30
0.0000
  0
SEQEND
  8
0
  0
POLYLINE
  8
20
 66
1
 10
0.0000
 20
0.0000
 30
0.0000
 40
0.0250
 41
0.0250
 70
0
  0
VERTEX
  8
20
 10
55.1013
 20
62.3883
 30
0.0000
  0
VERTEX
  8
20
 10
55.1013
 20
59.9883
 30
0.0000
  0
SEQEND
  8
0
  0
POLYLINE
  8
20
 66
1
 10
0.0000
 20
0.0000
 30
0.0000
 40
0.0125
 41
0.0125
 70
0
  0
VERTEX
  8
20
 10
55.0950
 20
59.9883
 30
0.0000
 42
1.0000
  0
VERTEX
  8
20
 10
55.1075
 20
59.9883
 30
0.0000
  0
SEQEND
  8
0
  0
POLYLINE
  8
20
 66
1
 10
0.0000
 20
0.0000
 30
0.0000
 40
0.0125
 41
0.0125
 70
0
  0
VERTEX
  8
20
 10
55.1075
 20
62.3883
 30
0.0000
 42
1.0000
  0
VERTEX
  8
20
 10
55.0950
 20
62.3883
 30
0.0000
  0
SEQEND
  8
0
  0
POLYLINE
  8
20
 66
1
 10
0.0000
 20
0.0000
 30
0.0000
 40
0.0250
 41
0.0250
 70
0
  0
VERTEX
  8
20
 10
66.4012
 20
61.1883
 30
0.0000
  0
VERTEX
  8
20
 10
68.8012
 20
61.1883
 30
0.0000
  0
SEQEND
  8
0
  0
POLYLINE
  8
20
 66
1
 10
0.0000
 20
0.0000
 30
0.0000
 40
0.0125
 41
0.0125
 70
0
  0
VERTEX
  8
20
 10
68.8012
 20
61.1821
 30
0.0000
 42
1.0000
  0
VERTEX
  8
20
 10
68.8012
 20
61.1946
 30
0.0000
  0
SEQEND
  8
0
  0
POLYLINE
  8
20
 66
1
 10
0.0000
 20
0.0000
 30
0.0000
 40
0.0125
 41
0.0125
 70
0
  0
VERTEX
  8
20
 10
66.4012
 20
61.1946
 30
0.0000
 42
1.0000
  0
VERTEX
  8
20
 10
66.4012
 20
61.1821
 30
0.0000
  0
SEQEND
  8
0
  0
POLYLINE
  8
20
 66
1
 10
0.0000
 20
0.0000
 30
0.0000
 40
0.0250
 41
0.0250
 70
0
  0
VERTEX
  8
20
 10
67.6012
 20
62.3883
 30
0.0000
  0
VERTEX
  8
20
 10
67.6012
 20
59.9883
 30
0.0000
  0
SEQEND
  8
0
  0
POLYLINE
  8
20
 66
1
 10
0.0000
 20
0.0000
 30
0.0000
 40
0.0125
 41
0.0125
 70
0
  0
VERTEX
  8
20
 10
67.5949
 20
59.9883
 30
0.0000
 42
1.0000
  0
VERTEX
  8
20
 10
67.6074
 20
59.9883
 30
0.0000
  0
SEQEND
  8
0
  0
POLYLINE
  8
20
 66
1
 10
0.0000
 20
0.0000
 30
0.0000
 40
0.0125
 41
0.0125
 70
0
  0
VERTEX
  8
20
 10
67.6074
 20
62.3883
 30
0.0000
 42
1.0000
  0
VERTEX
  8
20
 10
67.5949
 20
62.3883
 30
0.0000
  0
SEQEND
  8
0
  0
POLYLINE
  8
20
 66
1
 10
0.0000
 20
0.0000
 30
0.0000
 40
0.0250
 41
0.0250
 70
0
  0
VERTEX
  8
20
 10
65.1012
 20
89.3381
 30
0.0000
  0
VERTEX
  8
20
 10
65.1012
 20
87.0381
 30
0.0000
  0
SEQEND
  8
0
  0
POLYLINE
  8
20
 66
1
 10
0.0000
 20
0.0000
 30
0.0000
 40
0.0125
 41
0.0125
 70
0
  0
VERTEX
  8
20
 10
65.0949
 20
87.0381
 30
0.0000
 42
1.0000
  0
VERTEX
  8
20
 10
65.1074
 20
87.0381
 30
0.0000
  0
SEQEND
  8
0
  0
POLYLINE
  8
20
 66
1
 10
0.0000
 20
0.0000
 30
0.0000
 40
0.0125
 41
0.0125
 70
0
  0
VERTEX
  8
20
 10
65.1074
 20
89.3381
 30
0.0000
 42
1.0000
  0
VERTEX
  8
20
 10
65.0949
 20
89.3381
 30
0.0000
  0
SEQEND
  8
0
  0
POLYLINE
  8
20
 66
1
 10
0.0000
 20
0.0000
 30
0.0000
 40
0.0250
 41
0.0250
 70
0
  0
VERTEX
  8
20
 10
63.9512
 20
88.1881
 30
0.0000
  0
VERTEX
  8
20
 10
66.2512
 20
88.1881
 30
0.0000
  0
SEQEND
  8
0
  0
POLYLINE
  8
20
 66
1
 10
0.0000
 20
0.0000
 30
0.0000
 40
0.0125
 41
0.0125
 70
0
  0
VERTEX
  8
20
 10
66.2512
 20
88.1819
 30
0.0000
 42
1.0000
  0
VERTEX
  8
20
 10
66.2512
 20
88.1944
 30
0.0000
  0
SEQEND
  8
0
  0
POLYLINE
  8
20
 66
1
 10
0.0000
 20
0.0000
 30
0.0000
 40
0.0125
 41
0.0125
 70
0
  0
VERTEX
  8
20
 10
63.9512
 20
88.1944
 30
0.0000
 42
1.0000
  0
VERTEX
  8
20
 10
63.9512
 20
88.1819
 30
0.0000
  0
SEQEND
  8
0
  0
POLYLINE
  8
20
 66
1
 10
0.0000
 20
0.0000
 30
0.0000
 40
0.0250
 41
0.0250
 70
0
  0
VERTEX
  8
20
 10
13.9515
 20
88.1881
 30
0.0000
  0
VERTEX
  8
20
 10
16.2515
 20
88.1881
 30
0.0000
  0
SEQEND
  8
0
  0
POLYLINE
  8
20
 66
1
 10
0.0000
 20
0.0000
 30
0.0000
 40
0.0125
 41
0.0125
 70
0
  0
VERTEX
  8
20
 10
16.2515
 20
88.1819
 30
0.0000
 42
1.0000
  0
VERTEX
  8
20
 10
16.2515
 20
88.1944
 30
0.0000
  0
SEQEND
  8
0
  0
POLYLINE
  8
20
 66
1
 10
0.0000
 20
0.0000
 30
0.0000
 40
0.0125
 41
0.0125
 70
0
  0
VERTEX
  8
20
 10
13.9515
 20
88.1944
 30
0.0000
 42
1.0000
  0
VERTEX
  8
20
 10
13.9515
 20
88.1819
 30
0.0000
  0
SEQEND
  8
0
  0
POLYLINE
  8
20
 66
1
 10
0.0000
 20
0.0000
 30
0.0000
 40
0.0250
 41
0.0250
 70
0
  0
VERTEX
  8
20
 10
15.1015
 20
89.3381
 30
0.0000
  0
VERTEX
  8
20
 10
15.1015
 20
87.0381
 30
0.0000
  0
SEQEND
  8
0
  0
POLYLINE
  8
20
 66
1
 10
0.0000
 20
0.0000
 30
0.0000
 40
0.0125
 41
0.0125
 70
0
  0
VERTEX
  8
20
 10
15.0953
 20
87.0381
 30
0.0000
 42
1.0000
  0
VERTEX
  8
20
 10
15.1078
 20
87.0381
 30
0.0000
  0
SEQEND
  8
0
  0
POLYLINE
  8
20
 66
1
 10
0.0000
 20
0.0000
 30
0.0000
 40
0.0125
 41
0.0125
 70
0
  0
VERTEX
  8
20
 10
15.1078
 20
89.3381
 30
0.0000
 42
1.0000
  0
VERTEX
  8
20
 10
15.0953
 20
89.3381
 30
0.0000
  0
SEQEND
  8
0
  0
POLYLINE
  8
20
 66
1
 10
0.0000
 20
0.0000
 30
0.0000
 40
0.1270
 41
0.1270
 70
0
  0
VERTEX
  8
20
 10
36.5556
 20
84.7947
 30
0.0000
  0
VERTEX
  8
20
 10
36.3226
 20
85.0277
 30
0.0000
  0
SEQEND
  8
0
  0
POLYLINE
  8
20
 66
1
 10
0.0000
 20
0.0000
 30
0.0000
 40
0.0635
 41
0.0635
 70
0
  0
VERTEX
  8
20
 10
36.3450
 20
85.0501
 30
0.0000
 42
1.0000
  0
VERTEX
  8
20
 10
36.3001
 20
85.0052
 30
0.0000
  0
SEQEND
  8
0
  0
POLYLINE
  8
20
 66
1
 10
0.0000
 20
0.0000
 30
0.0000
 40
0.0635
 41
0.0635
 70
0
  0
VERTEX
  8
20
 10
36.5332
 20
84.7722
 30
0.0000
 42
1.0000
  0
VERTEX
  8
20
 10
36.5781
 20
84.8171
 30
0.0000
  0
SEQEND
  8
0
  0
POLYLINE
  8
20
 66
1
 10
0.0000
 20
0.0000
 30
0.0000
 40
0.1270
 41
0.1270
 70
0
  0
VERTEX
  8
20
 10
36.3226
 20
85.0277
 30
0.0000
  0
VERTEX
  8
20
 10
35.8565
 20
85.0277
 30
0.0000
  0
SEQEND
  8
0
  0
POLYLINE
  8
20
 66
1
 10
0.0000
 20
0.0000
 30
0.0000
 40
0.0635
 41
0.0635
 70
0
  0
VERTEX
  8
20
 10
35.8565
 20
85.0594
 30
0.0000
 42
1.0000
  0
VERTEX
  8
20
 10
35.8565
 20
84.9959
 30
0.0000
  0
SEQEND
  8
0
  0
POLYLINE
  8
20
 66
1
 10
0.0000
 20
0.0000
 30
0.0000
 40
0.0635
 41
0.0635
 70
0
  0
VERTEX
  8
20
 10
36.3226
 20
84.9959
 30
0.0000
 42
1.0000
  0
VERTEX
  8
20
 10
36.3226
 20
85.0594
 30
0.0000
  0
SEQEND
  8
0
  0
POLYLINE
  8
20
 66
1
 10
0.0000
 20
0.0000
 30
0.0000
 40
0.1270
 41
0.1270
 70
0
  0
VERTEX
  8
20
 10
35.8565
 20
85.0277
 30
0.0000
  0
VERTEX
  8
20
 10
35.6235
 20
84.7947
 30
0.0000
  0
SEQEND
  8
0
  0
POLYLINE
  8
20
 66
1
 10
0.0000
 20
0.0000
 30
0.0000
 40
0.0635
 41
0.0635
 70
0
  0
VERTEX
  8
20
 10
35.6010
 20
84.8171
 30
0.0000
 42
1.0000
  0
VERTEX
  8
20
 10
35.6460
 20
84.7722
 30
0.0000
  0
SEQEND
  8
0
  0
POLYLINE
  8
20
 66
1
 10
0.0000
 20
0.0000
 30
0.0000
 40
0.0635
 41
0.0635
 70
0
  0
VERTEX
  8
20
 10
35.8790
 20
85.0052
 30
0.0000
 42
1.0000
  0
VERTEX
  8
20
 10
35.8341
 20
85.0501
 30
0.0000
  0
SEQEND
  8
0
  0
POLYLINE
  8
20
 66
1
 10
0.0000
 20
0.0000
 30
0.0000
 40
0.1270
 41
0.1270
 70
0
  0
VERTEX
  8
20
 10
35.6235
 20
84.7947
 30
0.0000
  0
VERTEX
  8
20
 10
35.6235
 20
83.8625
 30
0.0000
  0
SEQEND
  8
0
  0
POLYLINE
  8
20
 66
1
 10
0.0000
 20
0.0000
 30
0.0000
 40
0.0635
 41
0.0635
 70
0
  0
VERTEX
  8
20
 10
35.5917
 20
83.8625
 30
0.0000
 42
1.0000
  0
VERTEX
  8
20
 10
35.6553
 20
83.8625
 30
0.0000
  0
SEQEND
  8
0
  0
POLYLINE
  8
20
 66
1
 10
0.0000
 20
0.0000
 30
0.0000
 40
0.0635
 41
0.0635
 70
0
  0
VERTEX
  8
20
 10
35.6553
 20
84.7947
 30
0.0000
 42
1.0000
  0
VERTEX
  8
20
 10
35.5917
 20
84.7947
 30
0.0000
  0
SEQEND
  8
0
  0
POLYLINE
  8
20
 66
1
 10
0.0000
 20
0.0000
 30
0.0000
 40
0.1270
 41
0.1270
 70
0
  0
VERTEX
  8
20
 10
35.6235
 20
83.8625
 30
0.0000
  0
VERTEX
  8
20
 10
35.8565
 20
83.6295
 30
0.0000
  0
SEQEND
  8
0
  0
POLYLINE
  8
20
 66
1
 10
0.0000
 20
0.0000
 30
0.0000
 40
0.0635
 41
0.0635
 70
0
  0
VERTEX
  8
20
 10
35.8341
 20
83.6070
 30
0.0000
 42
1.0000
  0
VERTEX
  8
20
 10
35.8790
 20
83.6520
 30
0.0000
  0
SEQEND
  8
0
  0
POLYLINE
  8
20
 66
1
 10
0.0000
 20
0.0000
 30
0.0000
 40
0.0635
 41
0.0635
 70
0
  0
VERTEX
  8
20
 10
35.6460
 20
83.8850
 30
0.0000
 42
1.0000
  0
VERTEX
  8
20
 10
35.6010
 20
83.8401
 30
0.0000
  0
SEQEND
  8
0
  0
POLYLINE
  8
20
 66
1
 10
0.0000
 20
0.0000
 30
0.0000
 40
0.1270
 41
0.1270
 70
0
  0
VERTEX
  8
20
 10
35.8565
 20
83.6295
 30
0.0000
  0
VERTEX
  8
20
 10
36.3226
 20
83.6295
 30
0.0000
  0
SEQEND
  8
0
  0
POLYLINE
  8
20
 66
1
 10
0.0000
 20
0.0000
 30
0.0000
 40
0.0635
 41
0.0635
 70
0
  0
VERTEX
  8
20
 10
36.3226
 20
83.5978
 30
0.0000
 42
1.0000
  0
VERTEX
  8
20
 10
36.3226
 20
83.6613
 30
0.0000
  0
SEQEND
  8
0
  0
POLYLINE
  8
20
 66
1
 10
0.0000
 20
0.0000
 30
0.0000
 40
0.0635
 41
0.0635
 70
0
  0
VERTEX
  8
20
 10
35.8565
 20
83.6613
 30
0.0000
 42
1.0000
  0
VERTEX
  8
20
 10
35.8565
 20
83.5978
 30
0.0000
  0
SEQEND
  8
0
  0
POLYLINE
  8
20
 66
1
 10
0.0000
 20
0.0000
 30
0.0000
 40
0.1270
 41
0.1270
 70
0
  0
VERTEX
  8
20
 10
36.3226
 20
83.6295
 30
0.0000
  0
VERTEX
  8
20
 10
36.5556
 20
83.8625
 30
0.0000
  0
SEQEND
  8
0
  0
POLYLINE
  8
20
 66
1
 10
0.0000
 20
0.0000
 30
0.0000
 40
0.0635
 41
0.0635
 70
0
  0
VERTEX
  8
20
 10
36.5781
 20
83.8401
 30
0.0000
 42
1.0000
  0
VERTEX
  8
20
 10
36.5332
 20
83.8850
 30
0.0000
  0
SEQEND
  8
0
  0
POLYLINE
  8
20
 66
1
 10
0.0000
 20
0.0000
 30
0.0000
 40
0.0635
 41
0.0635
 70
0
  0
VERTEX
  8
20
 10
36.3001
 20
83.6520
 30
0.0000
 42
1.0000
  0
VERTEX
  8
20
 10
36.3450
 20
83.6070
 30
0.0000
  0
SEQEND
  8
0
  0
POLYLINE
  8
20
 66
1
 10
0.0000
 20
0.0000
 30
0.0000
 40
0.1270
 41
0.1270
 70
0
  0
VERTEX
  8
20
 10
37.0268
 20
85.0277
 30
0.0000
  0
VERTEX
  8
20
 10
37.0268
 20
83.8625
 30
0.0000
  0
SEQEND
  8
0
  0
POLYLINE
  8
20
 66
1
 10
0.0000
 20
0.0000
 30
0.0000
 40
0.0635
 41
0.0635
 70
0
  0
VERTEX
  8
20
 10
36.9950
 20
83.8625
 30
0.0000
 42
1.0000
  0
VERTEX
  8
20
 10
37.0585
 20
83.8625
 30
0.0000
  0
SEQEND
  8
0
  0
POLYLINE
  8
20
 66
1
 10
0.0000
 20
0.0000
 30
0.0000
 40
0.0635
 41
0.0635
 70
0
  0
VERTEX
  8
20
 10
37.0585
 20
85.0277
 30
0.0000
 42
1.0000
  0
VERTEX
  8
20
 10
36.9950
 20
85.0277
 30
0.0000
  0
SEQEND
  8
0
  0
POLYLINE
  8
20
 66
1
 10
0.0000
 20
0.0000
 30
0.0000
 40
0.1270
 41
0.1270
 70
0
  0
VERTEX
  8
20
 10
37.0268
 20
83.8625
 30
0.0000
  0
VERTEX
  8
20
 10
37.2598
 20
83.6295
 30
0.0000
  0
SEQEND
  8
0
  0
POLYLINE
  8
20
 66
1
 10
0.0000
 20
0.0000
 30
0.0000
 40
0.0635
 41
0.0635
 70
0
  0
VERTEX
  8
20
 10
37.2374
 20
83.6070
 30
0.0000
 42
1.0000
  0
VERTEX
  8
20
 10
37.2823
 20
83.6520
 30
0.0000
  0
SEQEND
  8
0
  0
POLYLINE
  8
20
 66
1
 10
0.0000
 20
0.0000
 30
0.0000
 40
0.0635
 41
0.0635
 70
0
  0
VERTEX
  8
20
 10
37.0492
 20
83.8850
 30
0.0000
 42
1.0000
  0
VERTEX
  8
20
 10
37.0043
 20
83.8401
 30
0.0000
  0
SEQEND
  8
0
  0
POLYLINE
  8
20
 66
1
 10
0.0000
 20
0.0000
 30
0.0000
 40
0.1270
 41
0.1270
 70
0
  0
VERTEX
  8
20
 10
37.2598
 20
83.6295
 30
0.0000
  0
VERTEX
  8
20
 10
37.7259
 20
83.6295
 30
0.0000
  0
SEQEND
  8
0
  0
POLYLINE
  8
20
 66
1
 10
0.0000
 20
0.0000
 30
0.0000
 40
0.0635
 41
0.0635
 70
0
  0
VERTEX
  8
20
 10
37.7259
 20
83.5978
 30
0.0000
 42
1.0000
  0
VERTEX
  8
20
 10
37.7259
 20
83.6613
 30
0.0000
  0
SEQEND
  8
0
  0
POLYLINE
  8
20
 66
1
 10
0.0000
 20
0.0000
 30
0.0000
 40
0.0635
 41
0.0635
 70
0
  0
VERTEX
  8
20
 10
37.2598
 20
83.6613
 30
0.0000
 42
1.0000
  0
VERTEX
  8
20
 10
37.2598
 20
83.5978
 30
0.0000
  0
SEQEND
  8
0
  0
POLYLINE
  8
20
 66
1
 10
0.0000
 20
0.0000
 30
0.0000
 40
0.1270
 41
0.1270
 70
0
  0
VERTEX
  8
20
 10
37.7259
 20
83.6295
 30
0.0000
  0
VERTEX
  8
20
 10
37.9589
 20
83.8625
 30
0.0000
  0
SEQEND
  8
0
  0
POLYLINE
  8
20
 66
1
 10
0.0000
 20
0.0000
 30
0.0000
 40
0.0635
 41
0.0635
 70
0
  0
VERTEX
  8
20
 10
37.9814
 20
83.8401
 30
0.0000
 42
1.0000
  0
VERTEX
  8
20
 10
37.9365
 20
83.8850
 30
0.0000
  0
SEQEND
  8
0
  0
POLYLINE
  8
20
 66
1
 10
0.0000
 20
0.0000
 30
0.0000
 40
0.0635
 41
0.0635
 70
0
  0
VERTEX
  8
20
 10
37.7034
 20
83.6520
 30
0.0000
 42
1.0000
  0
VERTEX
  8
20
 10
37.7483
 20
83.6070
 30
0.0000
  0
SEQEND
  8
0
  0
POLYLINE
  8
20
 66
1
 10
0.0000
 20
0.0000
 30
0.0000
 40
0.1270
 41
0.1270
 70
0
  0
VERTEX
  8
20
 10
37.9589
 20
83.8625
 30
0.0000
  0
VERTEX
  8
20
 10
37.9589
 20
85.0277
 30
0.0000
  0
SEQEND
  8
0
  0
POLYLINE
  8
20
 66
1
 10
0.0000
 20
0.0000
 30
0.0000
 40
0.0635
 41
0.0635
 70
0
  0
VERTEX
  8
20
 10
37.9907
 20
85.0277
 30
0.0000
 42
1.0000
  0
VERTEX
  8
20
 10
37.9272
 20
85.0277
 30
0.0000
  0
SEQEND
  8
0
  0
POLYLINE
  8
20
 66
1
 10
0.0000
 20
0.0000
 30
0.0000
 40
0.0635
 41
0.0635
 70
0
  0
VERTEX
  8
20
 10
37.9272
 20
83.8625
 30
0.0000
 42
1.0000
  0
VERTEX
  8
20
 10
37.9907
 20
83.8625
 30
0.0000
  0
SEQEND
  8
0
  0
POLYLINE
  8
20
 66
1
 10
0.0000
 20
0.0000
 30
0.0000
 40
0.1270
 41
0.1270
 70
0
  0
VERTEX
  8
20
 10
38.8961
 20
83.6295
 30
0.0000
  0
VERTEX
  8
20
 10
38.8961
 20
85.0277
 30
0.0000
  0
SEQEND
  8
0
  0
POLYLINE
  8
20
 66
1
 10
0.0000
 20
0.0000
 30
0.0000
 40
0.0635
 41
0.0635
 70
0
  0
VERTEX
  8
20
 10
38.9279
 20
85.0277
 30
0.0000
 42
1.0000
  0
VERTEX
  8
20
 10
38.8644
 20
85.0277
 30
0.0000
  0
SEQEND
  8
0
  0
POLYLINE
  8
20
 66
1
 10
0.0000
 20
0.0000
 30
0.0000
 40
0.0635
 41
0.0635
 70
0
  0
VERTEX
  8
20
 10
38.8644
 20
83.6295
 30
0.0000
 42
1.0000
  0
VERTEX
  8
20
 10
38.9279
 20
83.6295
 30
0.0000
  0
SEQEND
  8
0
  0
POLYLINE
  8
20
 66
1
 10
0.0000
 20
0.0000
 30
0.0000
 40
0.1270
 41
0.1270
 70
0
  0
VERTEX
  8
20
 10
38.4301
 20
85.0277
 30
0.0000
  0
VERTEX
  8
20
 10
39.3622
 20
85.0277
 30
0.0000
  0
SEQEND
  8
0
  0
POLYLINE
  8
20
 66
1
 10
0.0000
 20
0.0000
 30
0.0000
 40
0.0635
 41
0.0635
 70
0
  0
VERTEX
  8
20
 10
39.3622
 20
84.9959
 30
0.0000
 42
1.0000
  0
VERTEX
  8
20
 10
39.3622
 20
85.0594
 30
0.0000
  0
SEQEND
  8
0
  0
POLYLINE
  8
20
 66
1
 10
0.0000
 20
0.0000
 30
0.0000
 40
0.0635
 41
0.0635
 70
0
  0
VERTEX
  8
20
 10
38.4301
 20
85.0594
 30
0.0000
 42
1.0000
  0
VERTEX
  8
20
 10
38.4301
 20
84.9959
 30
0.0000
  0
SEQEND
  8
0
  0
POLYLINE
  8
20
 66
1
 10
0.0000
 20
0.0000
 30
0.0000
 40
0.1270
 41
0.1270
 70
0
  0
VERTEX
  8
20
 10
41.9357
 20
85.0277
 30
0.0000
  0
VERTEX
  8
20
 10
41.4696
 20
85.0277
 30
0.0000
  0
SEQEND
  8
0
  0
POLYLINE
  8
20
 66
1
 10
0.0000
 20
0.0000
 30
0.0000
 40
0.0635
 41
0.0635
 70
0
  0
VERTEX
  8
20
 10
41.4696
 20
85.0594
 30
0.0000
 42
1.0000
  0
VERTEX
  8
20
 10
41.4696
 20
84.9959
 30
0.0000
  0
SEQEND
  8
0
  0
POLYLINE
  8
20
 66
1
 10
0.0000
 20
0.0000
 30
0.0000
 40
0.0635
 41
0.0635
 70
0
  0
VERTEX
  8
20
 10
41.9357
 20
84.9959
 30
0.0000
 42
1.0000
  0
VERTEX
  8
20
 10
41.9357
 20
85.0594
 30
0.0000
  0
SEQEND
  8
0
  0
POLYLINE
  8
20
 66
1
 10
0.0000
 20
0.0000
 30
0.0000
 40
0.1270
 41
0.1270
 70
0
  0
VERTEX
  8
20
 10
41.4696
 20
85.0277
 30
0.0000
  0
VERTEX
  8
20
 10
41.2366
 20
84.7947
 30
0.0000
  0
SEQEND
  8
0
  0
POLYLINE
  8
20
 66
1
 10
0.0000
 20
0.0000
 30
0.0000
 40
0.0635
 41
0.0635
 70
0
  0
VERTEX
  8
20
 10
41.2142
 20
84.8171
 30
0.0000
 42
1.0000
  0
VERTEX
  8
20
 10
41.2591
 20
84.7722
 30
0.0000
  0
SEQEND
  8
0
  0
POLYLINE
  8
20
 66
1
 10
0.0000
 20
0.0000
 30
0.0000
 40
0.0635
 41
0.0635
 70
0
  0
VERTEX
  8
20
 10
41.4921
 20
85.0052
 30
0.0000
 42
1.0000
  0
VERTEX
  8
20
 10
41.4472
 20
85.0501
 30
0.0000
  0
SEQEND
  8
0
  0
POLYLINE
  8
20
 66
1
 10
0.0000
 20
0.0000
 30
0.0000
 40
0.1270
 41
0.1270
 70
0
  0
VERTEX
  8
20
 10
41.2366
 20
84.7947
 30
0.0000
  0
VERTEX
  8
20
 10
41.2366
 20
83.8625
 30
0.0000
  0
SEQEND
  8
0
  0
POLYLINE
  8
20
 66
1
 10
0.0000
 20
0.0000
 30
0.0000
 40
0.0635
 41
0.0635
 70
0
  0
VERTEX
  8
20
 10
41.2049
 20
83.8625
 30
0.0000
 42
1.0000
  0
VERTEX
  8
20
 10
41.2684
 20
83.8625
 30
0.0000
  0
SEQEND
  8
0
  0
POLYLINE
  8
20
 66
1
 10
0.0000
 20
0.0000
 30
0.0000
 40
0.0635
 41
0.0635
 70
0
  0
VERTEX
  8
20
 10
41.2684
 20
84.7947
 30
0.0000
 42
1.0000
  0
VERTEX
  8
20
 10
41.2049
 20
84.7947
 30
0.0000
  0
SEQEND
  8
0
  0
POLYLINE
  8
20
 66
1
 10
0.0000
 20
0.0000
 30
0.0000
 40
0.1270
 41
0.1270
 70
0
  0
VERTEX
  8
20
 10
41.2366
 20
83.8625
 30
0.0000
  0
VERTEX
  8
20
 10
41.4696
 20
83.6295
 30
0.0000
  0
SEQEND
  8
0
  0
POLYLINE
  8
20
 66
1
 10
0.0000
 20
0.0000
 30
0.0000
 40
0.0635
 41
0.0635
 70
0
  0
VERTEX
  8
20
 10
41.4472
 20
83.6070
 30
0.0000
 42
1.0000
  0
VERTEX
  8
20
 10
41.4921
 20
83.6520
 30
0.0000
  0
SEQEND
  8
0
  0
POLYLINE
  8
20
 66
1
 10
0.0000
 20
0.0000
 30
0.0000
 40
0.0635
 41
0.0635
 70
0
  0
VERTEX
  8
20
 10
41.2591
 20
83.8850
 30
0.0000
 42
1.0000
  0
VERTEX
  8
20
 10
41.2142
 20
83.8401
 30
0.0000
  0
SEQEND
  8
0
  0
POLYLINE
  8
20
 66
1
 10
0.0000
 20
0.0000
 30
0.0000
 40
0.1270
 41
0.1270
 70
0
  0
VERTEX
  8
20
 10
41.4696
 20
83.6295
 30
0.0000
  0
VERTEX
  8
20
 10
41.9357
 20
83.6295
 30
0.0000
  0
SEQEND
  8
0
  0
POLYLINE
  8
20
 66
1
 10
0.0000
 20
0.0000
 30
0.0000
 40
0.0635
 41
0.0635
 70
0
  0
VERTEX
  8
20
 10
41.9357
 20
83.5978
 30
0.0000
 42
1.0000
  0
VERTEX
  8
20
 10
41.9357
 20
83.6613
 30
0.0000
  0
SEQEND
  8
0
  0
POLYLINE
  8
20
 66
1
 10
0.0000
 20
0.0000
 30
0.0000
 40
0.0635
 41
0.0635
 70
0
  0
VERTEX
  8
20
 10
41.4696
 20
83.6613
 30
0.0000
 42
1.0000
  0
VERTEX
  8
20
 10
41.4696
 20
83.5978
 30
0.0000
  0
SEQEND
  8
0
  0
POLYLINE
  8
20
 66
1
 10
0.0000
 20
0.0000
 30
0.0000
 40
0.1270
 41
0.1270
 70
0
  0
VERTEX
  8
20
 10
41.9357
 20
83.6295
 30
0.0000
  0
VERTEX
  8
20
 10
42.1687
 20
83.8625
 30
0.0000
  0
SEQEND
  8
0
  0
POLYLINE
  8
20
 66
1
 10
0.0000
 20
0.0000
 30
0.0000
 40
0.0635
 41
0.0635
 70
0
  0
VERTEX
  8
20
 10
42.1912
 20
83.8401
 30
0.0000
 42
1.0000
  0
VERTEX
  8
20
 10
42.1463
 20
83.8850
 30
0.0000
  0
SEQEND
  8
0
  0
POLYLINE
  8
20
 66
1
 10
0.0000
 20
0.0000
 30
0.0000
 40
0.0635
 41
0.0635
 70
0
  0
VERTEX
  8
20
 10
41.9133
 20
83.6520
 30
0.0000
 42
1.0000
  0
VERTEX
  8
20
 10
41.9582
 20
83.6070
 30
0.0000
  0
SEQEND
  8
0
  0
POLYLINE
  8
20
 66
1
 10
0.0000
 20
0.0000
 30
0.0000
 40
0.1270
 41
0.1270
 70
0
  0
VERTEX
  8
20
 10
42.1687
 20
83.8625
 30
0.0000
  0
VERTEX
  8
20
 10
42.1687
 20
84.7947
 30
0.0000
  0
SEQEND
  8
0
  0
POLYLINE
  8
20
 66
1
 10
0.0000
 20
0.0000
 30
0.0000
 40
0.0635
 41
0.0635
 70
0
  0
VERTEX
  8
20
 10
42.2005
 20
84.7947
 30
0.0000
 42
1.0000
  0
VERTEX
  8
20
 10
42.1370
 20
84.7947
 30
0.0000
  0
SEQEND
  8
0
  0
POLYLINE
  8
20
 66
1
 10
0.0000
 20
0.0000
 30
0.0000
 40
0.0635
 41
0.0635
 70
0
  0
VERTEX
  8
20
 10
42.1370
 20
83.8625
 30
0.0000
 42
1.0000
  0
VERTEX
  8
20
 10
42.2005
 20
83.8625
 30
0.0000
  0
SEQEND
  8
0
  0
POLYLINE
  8
20
 66
1
 10
0.0000
 20
0.0000
 30
0.0000
 40
0.1270
 41
0.1270
 70
0
  0
VERTEX
  8
20
 10
42.1687
 20
84.7947
 30
0.0000
  0
VERTEX
  8
20
 10
41.9357
 20
85.0277
 30
0.0000
  0
SEQEND
  8
0
  0
POLYLINE
  8
20
 66
1
 10
0.0000
 20
0.0000
 30
0.0000
 40
0.0635
 41
0.0635
 70
0
  0
VERTEX
  8
20
 10
41.9582
 20
85.0501
 30
0.0000
 42
1.0000
  0
VERTEX
  8
20
 10
41.9133
 20
85.0052
 30
0.0000
  0
SEQEND
  8
0
  0
POLYLINE
  8
20
 66
1
 10
0.0000
 20
0.0000
 30
0.0000
 40
0.0635
 41
0.0635
 70
0
  0
VERTEX
  8
20
 10
42.1463
 20
84.7722
 30
0.0000
 42
1.0000
  0
VERTEX
  8
20
 10
42.1912
 20
84.8171
 30
0.0000
  0
SEQEND
  8
0
  0
POLYLINE
  8
20
 66
1
 10
0.0000
 20
0.0000
 30
0.0000
 40
0.1270
 41
0.1270
 70
0
  0
VERTEX
  8
20
 10
42.6399
 20
85.0277
 30
0.0000
  0
VERTEX
  8
20
 10
42.6399
 20
83.8625
 30
0.0000
  0
SEQEND
  8
0
  0
POLYLINE
  8
20
 66
1
 10
0.0000
 20
0.0000
 30
0.0000
 40
0.0635
 41
0.0635
 70
0
  0
VERTEX
  8
20
 10
42.6081
 20
83.8625
 30
0.0000
 42
1.0000
  0
VERTEX
  8
20
 10
42.6716
 20
83.8625
 30
0.0000
  0
SEQEND
  8
0
  0
POLYLINE
  8
20
 66
1
 10
0.0000
 20
0.0000
 30
0.0000
 40
0.0635
 41
0.0635
 70
0
  0
VERTEX
  8
20
 10
42.6716
 20
85.0277
 30
0.0000
 42
1.0000
  0
VERTEX
  8
20
 10
42.6081
 20
85.0277
 30
0.0000
  0
SEQEND
  8
0
  0
POLYLINE
  8
20
 66
1
 10
0.0000
 20
0.0000
 30
0.0000
 40
0.1270
 41
0.1270
 70
0
  0
VERTEX
  8
20
 10
42.6399
 20
83.8625
 30
0.0000
  0
VERTEX
  8
20
 10
42.8729
 20
83.6295
 30
0.0000
  0
SEQEND
  8
0
  0
POLYLINE
  8
20
 66
1
 10
0.0000
 20
0.0000
 30
0.0000
 40
0.0635
 41
0.0635
 70
0
  0
VERTEX
  8
20
 10
42.8505
 20
83.6070
 30
0.0000
 42
1.0000
  0
VERTEX
  8
20
 10
42.8954
 20
83.6520
 30
0.0000
  0
SEQEND
  8
0
  0
POLYLINE
  8
20
 66
1
 10
0.0000
 20
0.0000
 30
0.0000
 40
0.0635
 41
0.0635
 70
0
  0
VERTEX
  8
20
 10
42.6623
 20
83.8850
 30
0.0000
 42
1.0000
  0
VERTEX
  8
20
 10
42.6174
 20
83.8401
 30
0.0000
  0
SEQEND
  8
0
  0
POLYLINE
  8
20
 66
1
 10
0.0000
 20
0.0000
 30
0.0000
 40
0.1270
 41
0.1270
 70
0
  0
VERTEX
  8
20
 10
42.8729
 20
83.6295
 30
0.0000
  0
VERTEX
  8
20
 10
43.3390
 20
83.6295
 30
0.0000
  0
SEQEND
  8
0
  0
POLYLINE
  8
20
 66
1
 10
0.0000
 20
0.0000
 30
0.0000
 40
0.0635
 41
0.0635
 70
0
  0
VERTEX
  8
20
 10
43.3390
 20
83.5978
 30
0.0000
 42
1.0000
  0
VERTEX
  8
20
 10
43.3390
 20
83.6613
 30
0.0000
  0
SEQEND
  8
0
  0
POLYLINE
  8
20
 66
1
 10
0.0000
 20
0.0000
 30
0.0000
 40
0.0635
 41
0.0635
 70
0
  0
VERTEX
  8
20
 10
42.8729
 20
83.6613
 30
0.0000
 42
1.0000
  0
VERTEX
  8
20
 10
42.8729
 20
83.5978
 30
0.0000
  0
SEQEND
  8
0
  0
POLYLINE
  8
20
 66
1
 10
0.0000
 20
0.0000
 30
0.0000
 40
0.1270
 41
0.1270
 70
0
  0
VERTEX
  8
20
 10
43.3390
 20
83.6295
 30
0.0000
  0
VERTEX
  8
20
 10
43.5720
 20
83.8625
 30
0.0000
  0
SEQEND
  8
0
  0
POLYLINE
  8
20
 66
1
 10
0.0000
 20
0.0000
 30
0.0000
 40
0.0635
 41
0.0635
 70
0
  0
VERTEX
  8
20
 10
43.5945
 20
83.8401
 30
0.0000
 42
1.0000
  0
VERTEX
  8
20
 10
43.5496
 20
83.8850
 30
0.0000
  0
SEQEND
  8
0
  0
POLYLINE
  8
20
 66
1
 10
0.0000
 20
0.0000
 30
0.0000
 40
0.0635
 41
0.0635
 70
0
  0
VERTEX
  8
20
 10
43.3165
 20
83.6520
 30
0.0000
 42
1.0000
  0
VERTEX
  8
20
 10
43.3614
 20
83.6070
 30
0.0000
  0
SEQEND
  8
0
  0
POLYLINE
  8
20
 66
1
 10
0.0000
 20
0.0000
 30
0.0000
 40
0.1270
 41
0.1270
 70
0
  0
VERTEX
  8
20
 10
43.5720
 20
83.8625
 30
0.0000
  0
VERTEX
  8
20
 10
43.5720
 20
85.0277
 30
0.0000
  0
SEQEND
  8
0
  0
POLYLINE
  8
20
 66
1
 10
0.0000
 20
0.0000
 30
0.0000
 40
0.0635
 41
0.0635
 70
0
  0
VERTEX
  8
20
 10
43.6038
 20
85.0277
 30
0.0000
 42
1.0000
  0
VERTEX
  8
20
 10
43.5403
 20
85.0277
 30
0.0000
  0
SEQEND
  8
0
  0
POLYLINE
  8
20
 66
1
 10
0.0000
 20
0.0000
 30
0.0000
 40
0.0635
 41
0.0635
 70
0
  0
VERTEX
  8
20
 10
43.5403
 20
83.8625
 30
0.0000
 42
1.0000
  0
VERTEX
  8
20
 10
43.6038
 20
83.8625
 30
0.0000
  0
SEQEND
  8
0
  0
POLYLINE
  8
20
 66
1
 10
0.0000
 20
0.0000
 30
0.0000
 40
0.1270
 41
0.1270
 70
0
  0
VERTEX
  8
20
 10
44.5092
 20
83.6295
 30
0.0000
  0
VERTEX
  8
20
 10
44.5092
 20
85.0277
 30
0.0000
  0
SEQEND
  8
0
  0
POLYLINE
  8
20
 66
1
 10
0.0000
 20
0.0000
 30
0.0000
 40
0.0635
 41
0.0635
 70
0
  0
VERTEX
  8
20
 10
44.5410
 20
85.0277
 30
0.0000
 42
1.0000
  0
VERTEX
  8
20
 10
44.4775
 20
85.0277
 30
0.0000
  0
SEQEND
  8
0
  0
POLYLINE
  8
20
 66
1
 10
0.0000
 20
0.0000
 30
0.0000
 40
0.0635
 41
0.0635
 70
0
  0
VERTEX
  8
20
 10
44.4775
 20
83.6295
 30
0.0000
 42
1.0000
  0
VERTEX
  8
20
 10
44.5410
 20
83.6295
 30
0.0000
  0
SEQEND
  8
0
  0
POLYLINE
  8
20
 66
1
 10
0.0000
 20
0.0000
 30
0.0000
 40
0.1270
 41
0.1270
 70
0
  0
VERTEX
  8
20
 10
44.0432
 20
85.0277
 30
0.0000
  0
VERTEX
  8
20
 10
44.9753
 20
85.0277
 30
0.0000
  0
SEQEND
  8
0
  0
POLYLINE
  8
20
 66
1
 10
0.0000
 20
0.0000
 30
0.0000
 40
0.0635
 41
0.0635
 70
0
  0
VERTEX
  8
20
 10
44.9753
 20
84.9959
 30
0.0000
 42
1.0000
  0
VERTEX
  8
20
 10
44.9753
 20
85.0594
 30
0.0000
  0
SEQEND
  8
0
  0
POLYLINE
  8
20
 66
1
 10
0.0000
 20
0.0000
 30
0.0000
 40
0.0635
 41
0.0635
 70
0
  0
VERTEX
  8
20
 10
44.0432
 20
85.0594
 30
0.0000
 42
1.0000
  0
VERTEX
  8
20
 10
44.0432
 20
84.9959
 30
0.0000
  0
SEQEND
  8
0
  0
CIRCLE
  8
20
 10
15.1308
 20
88.1939
 30
0.0000
 40
1.2700
  0
CIRCLE
  8
20
 10
65.1027
 20
88.2117
 30
0.0000
 40
1.2700
  0
CIRCLE
  8
20
 10
12.6289
 20
61.1632
 30
0.0000
 40
1.2700
  0
CIRCLE
  8
20
 10
25.1054
 20
61.1632
 30
0.0000
 40
1.2700
  0
CIRCLE
  8
20
 10
67.5767
 20
61.1632
 30
0.0000
 40
1.2700
  0
CIRCLE
  8
20
 10
55.1053
 20
61.1911
 30
0.0000
 40
1.2700
  0
CIRCLE
  8
20
 10
55.1053
 20
25.1663
 30
0.0000
 40
1.2700
  0
CIRCLE
  8
20
 10
25.1562
 20
25.1638
 30
0.0000
 40
1.2700
  0
CIRCLE
  8
20
 10
24.8920
 20
92.4086
 30
0.0000
 40
1.2700
  0
CIRCLE
  8
20
 10
54.8640
 20
92.4086
 30
0.0000
 40
1.2700
  0
CIRCLE
  8
20
 10
12.0000
 20
100.0000
 30
0.0000
 40
2.0000
  0
CIRCLE
  8
20
 10
68.0000
 20
100.0000
 30
0.0000
 40
2.0000
  0
CIRCLE
  8
20
 10
68.0000
 20
7.6200
 30
0.0000
 40
2.0000
  0
CIRCLE
  8
20
 10
12.0000
 20
7.6200
 30
0.0000
 40
2.0000
  0
CIRCLE
  8
20
 10
36.8398
 20
8.6004
 30
0.0000
 40
0.4500
  0
CIRCLE
  8
20
 10
41.2398
 20
8.6004
 30
0.0000
 40
0.4500
  0
ENDSEC
  0
EOF
